<?xml version="1.0" encoding="UTF-8"?>
<svg id="Layer_2" data-name="Layer 2" xmlns="http://www.w3.org/2000/svg" viewBox="0 0 6998.31 7333.51">
  <defs>
    <style>
      .cls-1, .cls-2, .cls-3 {
        fill: #fff;
      }

      .cls-4 {
        fill: #4e007e;
      }

      .cls-5, .cls-6, .cls-2, .cls-3, .cls-7, .cls-8, .cls-9, .cls-10, .cls-11, .cls-12, .cls-13, .cls-14, .cls-15 {
        stroke: #000;
      }

      .cls-5, .cls-6, .cls-2, .cls-3, .cls-7, .cls-8, .cls-9, .cls-10, .cls-12, .cls-13, .cls-14, .cls-15 {
        stroke-miterlimit: 9.96;
      }

      .cls-5, .cls-6, .cls-3, .cls-9, .cls-14 {
        stroke-width: 19.93px;
      }

      .cls-6 {
        fill: #ab8c57;
      }

      .cls-2, .cls-7, .cls-8, .cls-12, .cls-15 {
        stroke-width: 39.85px;
      }

      .cls-16 {
        fill: #009748;
      }

      .cls-7 {
        fill: #c7b299;
      }

      .cls-9, .cls-11 {
        fill: #ff8c00;
      }

      .cls-10 {
        fill: #736357;
        stroke-width: 49.81px;
      }

      .cls-11 {
        stroke-miterlimit: 9.96;
        stroke-width: 19.93px;
      }

      .cls-12 {
        fill: #998675;
      }

      .cls-17 {
        fill: #f5f500;
      }

      .cls-18 {
        fill: #070081;
      }

      .cls-13 {
        stroke-width: 59.78px;
      }

      .cls-19 {
        fill: #ff7c6c;
      }

      .cls-14 {
        fill: none;
      }

      .cls-20 {
        fill: #ff6e00;
      }

      .cls-21 {
        fill: #e00000;
      }

      .cls-15 {
        fill: #ffb89e;
      }
    </style>
  </defs>
  <g id="Layer_2-2" data-name="Layer 2">
    <g id="Layer_2-2" data-name="Layer 2-2">
      <path id="Outline" class="cls-10" d="m1203.66,1623.13c32.08-55.39,63.66-94.05,76.91-109.69,24.31-28.69,87.17-98.43,188.49-158.51,42.54-25.21,167.97-93.85,345.1-105.01,39.45-2.49,162.59-9.17,294.39,37.46,289.71,102.52,420.22,391.23,481.99,527.92,116.26,257.23,121.64,497.43,122.84,590.68,1.2,94.05-6.18,230.04-16.84,425.7-6.87,126.82-11.16,177.14-14.25,231.13-20.12,349.39,49.91,850.01,49.91,850.01,9.27,77.91,26.2,180.22,59.28,297.78,0,0,9.17,32.58,19.33,64.26,35.47,110.88,117.76,241.39,200.35,389.54,95.04,170.46,193.87,362.04,277.26,539.18,22.81,48.42,62.66,136.69,93.75,256.44,6.87,26.5,24.61,99.53,36.46,197.86,14.94,123.74,26.9,222.86,1.39,340.32-28.79,132.8-90.76,222.56-152.33,311.73-47.22,68.34-96.04,149.44-191.68,223.16-111.78,86.28-217.58,122.24-355.07,152.93-132.2,29.49-209.11,54.69-434.57,60.47-102.81,2.69-222.46-38.56-243.29-43.64-76.11-18.43-134.5-37.36-229.04-43.84-36.86-2.49-62.66-1.99-112.78-.8-167.87,4.08-213.7,21.22-308.04,20.72-13.75-.1-120.25-.5-237.71-37.96-167.87-53.6-275.27-150.04-332.05-202.24-200.55-184.01-279.15-398.01-310.14-485.18-112.38-316.81-65.95-597.76-35.27-776.78,17.73-103.21,31.48-132.9,87.17-330.06,0,0,215.99-763.93,291.01-1402.63,16.44-139.58,25.9-362.14,22.91-373.5-.2-.6-1.99-6.48,0-7.77,1.89-1.2,6.28,2.49,6.87,2.99,31.88,25.3,149.94,29.39,149.94,29.39,123.74,4.28,185.7,6.38,251.75-.7,121.84-13.05,213.6-22.81,319.3-78.11,54.2-28.29,136.79-72.73,194.07-165.98,29.49-47.92,39.85-88.67,56.99-156.11,14.15-55.59,35.87-144.16,27.2-259.53-5.98-79-11.26-149.54-60.17-221.47-17.63-25.9-57.88-83.29-133.6-111.08-69.24-25.4-131.21-12.45-171.56-3.49-51.61,11.46-87.27,30.19-137.09,58.08,0,0-326.28,182.71-452.2,192.68-2.39.2-9.27.7-10.06-1.59-.7-1.89,3.19-4.38,3.69-5.38,10.56-20.52,44.43-45.63,86.48-153.03.3-.7.6-1.49,1.1-2.79,0,0,1.3-3.19,2.39-6.38,2.19-6.18,71.03-259.53,119.35-396.91,32.88-94.25,58.98-141.17,70.04-160.3h0Z"/>
      <path class="cls-12" d="m1575.07,4408.78c-229.84,33.18-373.9,167.47-413.55,205.43-102.71,98.43-150.83,200.95-182.02,267.3-68.74,146.35-89.17,281.34-107,398.9-5.88,38.85-14.74,98.43-18.13,178.33-5.48,128.22,6.28,233.42,17.33,303.16,11.06,69.84,29.09,183.11,64.66,257.83,4.68,9.96,22.32,45.43,37.46,96.54,8.77,29.39,9.56,39.85,15.24,61.67,5.08,19.63,23.01,86.38,71.93,152.03,13.15,17.63,45.93,58.58,100.82,95.24,23.41,15.64,89.26,58.58,182.42,67.05,24.21,2.19,58.68-1.69,127.52-9.46,115.17-12.95,131.71-21.02,192.18-24.41,68.34-3.89,119.05,2.29,169.76,8.47,67.75,8.17,98.33,17.53,234.52,47.82,101.72,22.62,152.63,33.87,175.24,37.46,86.18,13.65,198.26,31.38,332.85,3.79,75.02-15.34,162.99-33.37,243.78-106.9,19.83-18.03,84.88-78.7,113.47-180.02,20.32-72.03,13.65-133.8,9.36-169.76-6.67-56.19-21.02-96.94-27.2-114.37-62.07-176.54-114.97-356.16-177.23-532.6-53.6-151.73-52-150.14-66.55-186.6-36.36-90.96-80.1-198.65-158.51-323.49-42.04-66.95-94.84-149.84-185.7-240-37.36-37.16-115.87-114.07-233.42-178.73-85.78-47.02-273.17-150.14-519.25-114.67h0Z"/>
      <circle class="cls-19" cx="2114.35" cy="2595.88" r="159.8" transform="translate(-1216.29 2255.38) rotate(-45)"/>
      <g id="Mouth">
        <path id="Mouth_or_so" data-name="Mouth or so" class="cls-7" d="m1071.06,3096.5c123.44,13.45,229.44,2.79,304.46-10.56,14.84-2.69,26-4.98,29.89-5.78,86.67-17.63,183.11-38.36,280.75-110.19,38.26-28.19,84.48-62.96,118.16-125.03,19.13-35.17,30.09-79.5,52.2-168.07,15.44-61.87,23.11-92.75,26.6-120.85,4.68-37.56,11.26-118.75-11.86-218.08-11.06-47.92-18.23-78.41-40.25-115.17-13.05-21.62-55.49-89.86-141.97-121.24-81.89-29.79-156.71-4.28-216.39,15.24-13.35,4.38-26.2,9.27-98.93,45.03-138.58,68.04-168.17,87.87-224.16,113.08-77.31,34.87-137.19,49.51-218.48,69.34-85.18,20.82-205.43,47.52-358.85,42.24-110.39-3.89-188.09-4.58-243.29-6.38-9.07-.3,6.48,41.34,5.08,41.34-1.3,0,55.69,28.99,14.55,114.07-19.03,39.35-109.19,55.79-107.8,59.78,30.29,91.16,209.91,357.16,531.6,445.63,122.04,33.57,236.61,48.82,298.68,55.59h0Z"/>
        <path d="m826.78,2578.15c23.11,27.6,24.51,29.29,24.51,29.29,16.74,19.13,55.79,60.67,72.23,78.41,26,28,38.95,42.04,53.4,59.38,28.19,33.77,48.12,62.57,58.18,77.51,0,0,31.28,46.63,64.96,112.98,10.86,21.32,29.69,60.97,31.78,65.45.3.7.4,1,.4,1,3.99,8.57,5.98,12.85,6.18,13.25.1.2.3.7.7,1.39.2.4.8,1.3,1.49,2.09,1.39,1.39,3.19,1.69,3.49,1.79,2.29.4,4.08-.5,5.08-1.1.4-.2,3.69-1.99,4.98-5.88.7-2.09.5-3.89.4-4.68-1.89-15.44-4.68-26.3-4.68-26.3-1.99-7.77-1.89-8.67-3.09-13.35-9.46-37.46-28.69-80.1-28.69-80.1-7.17-15.74-21.82-46.53-45.83-82.99-15.94-24.21-29.19-40.85-43.84-58.98-13.35-16.54-51.11-62.27-105.3-112.88,0,0-29.19-27.3-68.24-58.88-5.58-4.58-16.24-12.45-17.93-14.05-.1-.1-.9-.8-2.19-1.59-.8-.5-1.3-.7-1.49-.8-.4-.2-1.2-.5-2.29-.6-1.89-.1-3.39.6-3.79.9-1,.6-1.59,1.2-2.09,1.69-1.79,1.99-2.39,4.18-2.59,4.98-.2.7-.5,2.19-.2,4.18.3,2.19,1.3,3.69,1.39,3.99.1.2.3.5.8,1,1.3,1.59,2.29,2.79,2.29,2.89h0Z"/>
        <path d="m1116.09,2597.48c15.54,11.56,48.42,31.78,78.8,45.43.1,0,2.39,1.2,3.09,1.49,14.55,7.07,26.5,12.85,27.99,13.55,26.6,12.85,50.81,27.7,50.81,27.7,28.89,17.63,49.61,34.37,58.28,41.54,19.43,16.14,33.18,29.99,38.65,35.67,0,0,18.83,19.53,35.27,41.05,3.69,4.78,9.27,12.55,11.26,15.44.6.8,2.79,3.99,3.49,5.08.1.1.4.5.8,1.2.4.6.6.8.7,1,.8,1,1.99,1.39,2.19,1.49,1.49.6,2.89.2,3.29.1.6-.1,1.59-.4,2.49-1.39.2-.2.8-.9,1-1.99.2-1.2-.2-2.19-.5-2.69-.8-1.89-1.3-3.99-2.29-5.78-2.19-3.99-3.39-7.97-5.18-11.96-12.25-26.8-30.78-52.7-30.78-52.7-23.81-33.37-48.62-55.99-65.95-70.63-18.73-15.74-33.28-26.9-47.62-37.36-15.44-11.16-34.27-25.21-62.27-40.65-25.9-14.25-34.77-19.23-66.55-30.68-14.64-5.28-30.78-8.47-35.17-8.77-.8-.1-1.59,0-1.59,0-3.99.2-6.97,1.89-7.87,2.39-1.39.8-6.58,3.89-7.97,9.96-.2.9-.8,3.69.4,6.97.9,2.69,2.59,4.28,5.68,6.97,6.97,5.88,9.56,7.57,9.56,7.57h0Z"/>
        <path d="m1002.02,2620.49c4.18,1.1,8.47,2.39,8.47,2.39,7.37,2.19,13.45,4.48,17.04,5.88.8.3,4.68,1.79,9.07,3.69,12.45,5.38,22.91,11.26,27.1,13.65,17.73,10.16,30.39,20.12,37.46,25.6,4.28,3.39,13.65,10.86,27.1,23.61,27.4,25.8,46.63,49.41,65.85,73.13,4.88,6.08,11.36,14.25,24.31,30.78,19.63,25.01,22.12,28.49,33.67,42.94,12.05,15.04,20.22,25.21,31.88,38.36,0,0,14.84,16.94,28.99,30.78,2.79,2.69,5.18,4.78,7.27,6.87,1.2,1.3,2.59,2.29,3.79,3.59.1.1.3.3.6.5.1.1.6.4,1.3.5,1.2.3,2.19-.2,2.49-.3.4-.2,1.1-.5,1.69-1.3.1-.1.6-1,.5-2.19,0-.2-.1-.3-.1-.4-.4-1.39-.6-2.09-1.2-3.39-1.1-2.29-6.28-16.44-12.75-29.49-13.15-26.2-31.28-51.31-31.28-51.31-26.4-36.76-52.4-63.86-74.22-86.38-21.02-21.72-38.06-37.56-58.98-56.89-12.55-11.66-19.03-17.33-26.2-23.21-15.34-12.65-30.68-25.3-52.9-37.36-8.27-4.48-20.12-10.86-36.46-16.04,0,0-16.74-5.28-38.26-7.57h-.5c-.5,0-1.2-.1-1.89.1-.1,0-.9.2-1.59.8-1.79,1.2-2.29,3.39-2.39,3.79-.1.5-.6,2.89.8,4.98,1.1,1.59,2.79,2.19,3.29,2.29.4.1.7.2,1,.2.8.3,2.29.6,5.08,1.39h0Z"/>
        <circle cx="1358.38" cy="2526.94" r="2.69"/>
        <circle cx="1069.97" cy="2730.58" r="18.33"/>
        <circle cx="1227.28" cy="2710.45" r="1"/>
        <circle cx="942.15" cy="2530.53" r="23.21"/>
        <path d="m832.16,2732.67c-9.56,3.99-18.43,11.56-22.22,15.54-.3.4-.6.6-.9,1-3.89,5.18-4.48,11.16-4.68,13.25-.2,1.49-.2,4.88,1.3,8.77.4,1.1,2.09,5.48,6.48,9.27,4.88,4.28,10.16,5.18,11.36,5.38,7.07,1.1,12.45-1.59,14.45-2.59,4.08-2.09,6.67-4.28,10.36-9.36,2.89-3.89,5.88-7.27,8.27-12.55,1.3-2.69,2.49-6.58,2.09-11.56-.2-2.19-.6-7.57-4.78-12.15-4.18-4.48-9.36-5.38-11.66-5.78-4.48-.6-8.07-.1-10.06.8Z"/>
        <g id="Nose">
          <path id="Nose-2" class="cls-13" d="m328.85,2380.09c-14.55-18.33-30.09-26.4-52.3-61.17-15.34-24.01-19.93-35.67-25.11-39.35-28.99-21.02-47.62-29.79-115.07-11.56-28.29,7.67-33.97-7.77-56.99-1.49-20.62,5.68-35.37,16.94-46.92,63.66-8.97,36.46,8.57,28.99,6.28,75.72-1.2,23.31,19.03,78.01,58.88,115.57,12.65,11.86,50.21,49.51,109.59,64.06,18.73,4.58,35.47,12.45,60.57,6.67,46.62-10.66,70.54-48.82,75.92-57.68,2.59-4.28,34.97-58.88,14.45-88.17-7.47-10.66-9.27-12.55-16.74-27-8.57-16.44-1.59-25.3-12.55-39.25Z"/>
          <path id="White_spot_1" data-name="White spot 1" class="cls-1" d="m147.03,2280.37c.7-.6,1.69-.9,2.69-.6h.1c1.39.6,3.09,1.3,3.49,1.49,8.97,3.99,17.04,8.77,17.04,8.77,3.99,2.39,12.95,7.67,22.71,16.44,15.24,13.75,23.21,27.7,28.29,36.66,0,0,5.78,10.16,9.36,22.12.3.8,1.79,6.08,2.09,12.15.1,2.19-.1,4.18-.6,8.07-.1.5-.2,1.69-.9,3.09-.2.5-.5,1.1-1.2,1.79-.9.9-1.79,1.3-2.09,1.39-.4.1-1.2.4-2.19.3,0,0-.8-.1-1.69-.6-1.3-.8-3.39-3.39-5.18-7.27-.5-1-1.1-2.49-1.79-4.38-1.1-3.09-1.69-5.48-1.79-6.08-1.39-5.68-5.38-15.14-6.28-17.33-5.58-13.25-14.94-26.3-18.13-30.78-7.17-10.06-16.94-22.42-25.9-29.39-5.58-4.38-11.06-9.76-17.43-13.35-.1,0-.3-.1-.5-.4-.4-.6-.4-1.69-.1-2.09h0Z"/>
          <path id="White_spot_2" data-name="White spot 2" class="cls-1" d="m211.19,2316.83c1.59,1.3,24.31,31.58,24.31,31.58,0,.1.1.1.1.2.6.8,1.3,1.49,1.79,2.39,0,0,.1.2.3.3.1,0,.1.1.3.1h.4c.1,0,.3-.1.4-.3.1-.2,0-.4,0-.4-.1-.2-.2-.2-.2-.3-2.19-2.09-3.49-4.88-5.28-7.27l-2.09-2.79c-.1-.1-5.18-7.07-5.48-7.57-2.99-4.18-4.58-6.28-4.78-6.58-4.28-5.88-4.18-5.78-4.78-6.58-.8-1-2.79-3.69-3.09-4.18,0,0-.1-.2-.2-.3-.2-.2-.5-.3-.6-.3s-.7-.2-1.2.2c-.1.1-.4.3-.4.7,0,.3,0,.5.1.5,0,.1.1.2.2.3,0,.2.2.3.2.3h0Z"/>
        </g>
      </g>
      <g id="right_eye" data-name="right eye">
        <path id="right_eye-2" data-name="right eye-2" class="cls-2" d="m1198.48,1949.91c12.85-12.45,36.26-34.57,74.12-45.03,18.73-5.18,56.59-15.64,91.86,4.18,34.17,19.13,45.43,55.09,50.61,71.53,8.67,27.6,7.27,31.48,6.18,80.4-.2,7.17.3,23.11-3.89,36.46,0,0-2.09,4.98-5.18,9.86-24.21,37.86-147.15,97.04-172.55,110.58-3.29,1.79-11.46,6.18-22.52,6.18-2.49,0-9.27-.3-22.52-6.08-4.78-2.09-18.43-8.07-29.99-18.33-22.02-19.43-28.69-46.92-31.38-59.08-9.07-39.85,1.69-72.63,9.86-97.53,6.87-20.62,19.83-58.68,55.39-93.15h0Z"/>
        <path class="cls-5" d="m1339.65,1918.32c-21.72,7.57-34.47,22.52-46.53,36.56-8.07,9.46-17.33,20.42-23.31,37.76-3.39,9.76-4.48,18.03-4.88,22.52-1.79,19.03,2.39,33.67,4.18,39.15,2.39,7.27,6.97,20.62,18.73,32.78,13.35,13.75,28.69,18.63,45.33,23.81,2.19.7,1,.2,29.49,6.67,28.39,6.38,31.48,7.27,36.06,5.38,10.66-4.38,14.45-17.14,20.72-38.65,3.09-10.66,7.77-27,7.27-49.22-.1-7.27-1.1-29.69-11.96-55.69-4.38-10.66-9.86-19.13-20.62-35.96-14.35-22.32-19.73-26-24.81-27.9-10.66-3.89-20.62-.4-29.69,2.79h0Z"/>
      </g>
      <g id="Left_eye" data-name="Left eye">
        <path class="cls-2" d="m1928.14,2139.79c11.56-106.3,122.04-206.52,215.09-179.53,73.03,21.22,115.87,115.17,105.01,192.68-15.54,110.68-142.47,200.45-231.83,165.28-64.86-25.5-95.64-111.08-88.27-178.43h0Z"/>
        <path class="cls-8" d="m2084.56,2118.77c-11.96-52.5,30.19-115.57,79.2-114.87,42.44.6,80.9,48.92,78.11,97.04-2.39,41.44-35.47,85.78-79.9,85.78-39.45,0-69.84-34.87-77.41-67.94Z"/>
      </g>
      <g id="Flag">
        <path id="Purple" class="cls-4" d="m4219.09,2421c-13.44,35.79,1.66,129.53-4,236.71,0,0-7.7,74.64-16.53,108.84-.27,1.05-2.57,6.59-3.93,14.41-.29,1.67-2.49,14.25-.88,18.63,4.96,13.58,65.73.11,121.12-4.59,48.25-4.09,87.12-1.14,156.2,4.22,27.71,2.15,30.76,3.16,74.82,6.75,59.8,4.86,86.64,5.63,105.25,7.12,66.47,5.31,115.43,26.78,199.95,63.85,104.26,45.72,87.14,53.52,155.9,77.37,59.94,20.79,113.49,28.92,192.62,40.94,55.28,8.4,88.2,11.24,120.37,14.91,83.04,9.46,128.75,20.68,381.16,79.49,217.97,50.79,207.24,47.87,222.33,51.83,76.45,20.12,190.06,50.36,331.71,104.06,262.91,99.68,459.7,218.47,462.56,220.33.08.05.54.36,1.21.68,5.07,2.44,10.8.24,11.9-.18,6.81-2.61,10.3-9.78,11.37-12.07,26.95-57.25,29.35-69.51,29.35-69.51,10.42-53.44,22.04-58.38,30.06-98.34,8.74-43.62-4.1-67.91-21.27-177.37-6.46-41.17-7.82-62.94-9.19-71.75-30.32-195.23-594.41-374.79-594.41-374.79-890.78-129.97-1893.13-413.34-1957.65-241.55h-.03Z"/>
        <path id="Blue" class="cls-18" d="m6771.15,3037.35c-12.49-103.8-23.86-209.84-33.91-318.06-5.21-56.08-9.97-111.63-14.28-166.66,0,0-.07-.02-.08-.02-115.57-35.32-182.41-122.62-198.15-141.19-83.63-98.68-300.12-115.81-564.22-136.71-331.54-26.24-317.07,27.96-500.81-8.08-248.4-48.72-259.47-144.75-537.25-238.49-253.41-85.52-634.96-137.47-714.8,1.34-56.14,97.61,6.71,349.48,11.44,391.47v.06c103.78-6.55,257.74-8,440.3,23.25,171.62,29.37,241.74,65.94,437.89,106.8,169.25,35.27,202.29,25.81,456.04,57.28,360.29,44.69,540.43,67.03,734.16,140.8,119.43,45.48,293.56,128.39,483.68,288.21h-.02Z"/>
        <path id="Green" class="cls-16" d="m6722.95,2552.63c-13.09-11.04-4.67-44.83-8.86-186.15-1.45-48.88-1.7-89.26-1.67-116.57,0,0-6.7-46.9-8.43-90.75-7.02-177.81-1019.14-173.33-1881.96-490.94,0,0-583.17-86.44-601.04,4.87-.59,3.05-.34,8.78-.46,50.39-.05,16.63-.47,38.33-1.88,66.8-2.52,50.73-5.53,68.85-8.27,120.72,0,0-9.66,133.02-1.12,128.74,144.7-72.64,638.11,25.82,638.11,25.82,215.59,4.64,397.68,141.72,540.53,208.69,88.22,41.36,321.01-3.45,535.79,19.33,126.52,14.69,329.52,67.75,430.01,104.37,264.32,96.29,367.17,176.68,371.37,158.1.25-1.12-.8-2.29-2.15-3.42h.02Z"/>
        <path id="Yellow" class="cls-17" d="m4221,1673.09c-27.08,5.91-.34-40.68-.23-133.31.15-136.17-12.1-173.45-15.45-208.74-2.42-25.49,356.21-116.27,646.72-40.78,0,0,583.59,228.52,676.36,251.29,207.2,50.85,221.85-14.58,521.56,10.97,296.09,25.24,267.67,86.12,603.3,146.54,33.9,6.1,74.71,64.68,73.73,72.86-5.56,46.57-25.03,81.12-32.46,200.52-.68,10.94-1.59,33.15-1.1,60.94,1.63,91.32,25.07,132.08,10.54,125.78-24.67-10.71-501.93-222.8-1170.72-220.8-116.75.35-634.26-248.44-865.23-263.22-157.09-10.05-305.65-32.94-447.05-2.05h.02Z"/>
        <path id="Orange" class="cls-20" d="m6735.49,1746.27c34.61-8.07,8.32-47.47,65.88-190.37,34.26-85.04,51.82-125.85,51.82-125.85,21-48.79,27.31-54.2,22.44-54.1-43.28.84-300.35-189.07-635.36-223.75-357.96-37.07-675.53,130.15-931.12-2.48-498.56-258.72-1116.9-267.51-1114.8-204.63,1.31,39.27-2.99,386.2,10.44,386.12.28,0,.47-.13.51-.15,5.37-3.35,228.45-105.58,666.21-6.9,399.55,90.06,422.02,219.16,658.19,254.28,286.8,42.66,397.67-68.24,703.74,18.42,246.52,69.8,431.7,165.82,502.04,149.41h.01Z"/>
        <path id="RED" class="cls-21" d="m6877.46,1368.99c28.84-15.49,53.85-91.51,103.88-243.55,3.84-11.69,11.14-34.92,3.85-61.21-3.23-11.65-10.64-28.7-41.08-55.5-29.43-25.93-61.23-44.1-115.84-67.32-36.52-15.53-64.25-25.25-91.26-34.65-109.02-37.96-163.59-56.95-166.66-57.8-70.15-19.11-123.48-22.13-204.88-26.27-54.23-2.75-93.69-2.28-237.62,3.38-191.17,7.53-286.76,11.3-360.27,15.95-149.76,9.48-166.83,14.21-224.41,8.22-51.58-5.36-140.76-15.48-236.01-66.43-40.08-21.44-35.65-25.73-124.62-83.43-64.73-41.98-110.52-71.67-159.57-95.94-90.43-44.73-165.19-57.78-280.34-77.89-63.08-11.01-142.39-24.5-247.81-25.22-167.96-1.15-308.65,38.35-317.68,37.2-.32-.04-2.03-.33-3.21.65-2.95,2.43.02,10.48.76,12.62,5.32,15.45,3.16,32.56,5.93,48.66,18.88,110,6.02,345.59,12.14,345.62l7.13-.92s220.35-12.48,369.05-.59c194.76,15.57,336.44,61.5,495,112.9,282.77,91.67,321.2,149.31,495.11,158.11,126.99,6.43,121.93-23.53,311.81-41.5,188.41-17.82,455.81-43.13,712.24,74.12,154.61,70.68,226.54,157.21,294.35,120.78h0Z"/>
        <path class="cls-6" d="m3922.24,5060.76c1.66-13.67,132.37-1549.77,151.97-2025.61,7.01-170.16,15.69-590.45,15.69-590.45,6.51-270.2,9.77-405.3,10.58-489.86,0,0,3.9-408.95-14.34-946.6-3.28-96.67,1.13-194.01-1.83-290.68-.85-27.87-14.51-79.23-11.67-143.28,3.01-67.92,19.18-121.21,18.91-134.7-.02-.97-.19-4.86,2.1-8.58,1.68-2.73,4.53-4.76,9.38-6.84,8.38-3.58,16.05-2.62,25.47-1.44,4.57.57,12.3,3.28,27.76,8.7,1.16.41,3.53,1.27,5.22,3.53,1.66,2.21,1.82,4.67,1.88,5.49,1.23,17.25,4.83,34.37,4.86,51.66.05,18.59,4.43,26.41,8.93,46.47,12.21,54.33-.02,85.79,4.09,172.87,1.3,27.36,3.35,42.17,5.77,66.13,13.11,129.36,7.66,234.4,14.93,460.71,3.8,118.33,8.84,213.11,8.84,213.11,6.84,128.4,11.3,160.52,10.03,236.24-1,59.78-4,52.81-11.26,182.14-6.2,110.6-9.31,165.91-8.1,235.43,1.11,63.83,4.13,58.68,11.42,193.83,6.19,114.8,9.28,172.19,7.82,225.09-.64,22.97-3.7,115.61-22.43,234.68-11.21,71.21-17.08,82.35-25.8,150.08-8.77,68.05-10.61,117.24-12.94,175.69-5.86,147.41-8.88,223.18-11.83,278.11-4.74,88.27-6.88,77.56-32.48,364.46-4.44,49.8-2.05,24.03-21.07,242.6-15.87,182.38-23.79,273.56-25.1,286.73-9.1,91.5-21.47,198.04-46.21,411.12-16.5,142.14-21.97,213.9-16.86,233.58,0,0,13.09,50.32-.2,156.79-.17,1.35-.67,5.37-3.53,9.04-2.85,3.65-6.69,5.24-9.52,6.17-18.63,6.23-43.04,1.49-62.49-2.29-1.59-.31-4.98-1.02-6.83-3.74-1.76-2.59-1.26-5.73-1.19-6.35h0Z"/>
        <path class="cls-14" d="m4193.75,2799.6c4.96,13.58,65.73.11,121.12-4.59,48.25-4.09,87.12-1.14,156.2,4.22,27.71,2.15,30.76,3.16,74.82,6.75,59.8,4.86,86.64,5.63,105.25,7.12,66.47,5.31,115.43,26.78,199.95,63.85,104.26,45.72,87.14,53.52,155.9,77.37,59.94,20.79,113.49,28.92,192.62,40.94,55.28,8.4,88.2,11.24,120.37,14.91,83.04,9.46,128.75,20.68,381.16,79.49,217.97,50.79,207.24,47.87,222.33,51.83,76.45,20.12,190.06,50.36,331.71,104.06,262.91,99.68,459.7,218.47,462.56,220.33.08.05.54.36,1.21.68,5.07,2.44,10.8.24,11.9-.18,6.81-2.61,10.3-9.78,11.37-12.07,26.95-57.25,29.35-69.51,29.35-69.51,10.42-53.44,22.04-58.38,30.06-98.34,8.77-43.76-4.15-68.31-21.27-177.37-3.74-23.82-6.08-47.84-9.19-71.75-32.08-247.49-48.2-484.72-48.2-484.72-18.2-267.96-.42-244.23-18.95-393.48-5.18-41.65-13.91-102.62-9.46-186.72,4.72-89.13,21.81-158.32,32.46-200.52,16.4-64.99,35.72-115.33,74.38-216.01,38.62-100.58,57.93-150.86,76.08-186.93,0,0,65.88-130.87,103.88-243.55,3.63-10.77,11.26-34.47,3.85-61.21-3.23-11.65-10.64-28.7-41.08-55.5-29.43-25.93-61.23-44.1-115.84-67.32-36.52-15.53-64.25-25.25-91.26-34.65-109.02-37.96-163.59-56.95-166.66-57.8-70.15-19.11-123.48-22.13-204.88-26.27-54.23-2.75-93.69-2.28-237.62,3.38-191.17,7.53-286.76,11.3-360.27,15.95-149.76,9.48-166.83,14.21-224.41,8.22-51.58-5.36-140.76-15.48-236.01-66.43-40.08-21.44-35.65-25.73-124.62-83.43-64.73-41.98-110.52-71.67-159.57-95.94-90.43-44.73-165.19-57.78-280.34-77.89-63.08-11.01-142.39-24.5-247.81-25.22-167.96-1.15-308.65,38.35-317.68,37.2-.32-.04-2.03-.33-3.21.65-2.95,2.43.02,10.48.76,12.62,5.32,15.45,3.16,32.56,5.93,48.66,16.33,95.19,15.33,334.49,15.33,334.49-.57,135.99,3.29,237.01,9.36,396.1,8.22,215.29,15.2,214.61,15.69,342.04.67,179.93-13.29,172.8-13.36,356.39-.08,196.96,11.46,391.53,11.46,391.53,0,0,4.63,78.02-4,236.71-1.07,19.72-3.8,59.54-16.53,108.84-.27,1.05-2.57,6.59-3.93,14.41-.29,1.67-2.49,14.25-.88,18.63h-.05Z"/>
      </g>
      <g id="Left_Arm" data-name="Left Arm">
        <path id="arm" class="cls-10" d="m2681.57,3341.69c14.27-15.27,45.8,2.74,94.9,15.9,27.49,7.36,71.67,27.76,98.82,43.29,176,100.71,172.34,104.36,240,162.82,116.25,139.73,68.1,82.99,189.18,222.12,59.29,79.06,92.65,105.41,140.24,85.65,35.76-28.24,335.36-517.47,375.06-551.06,6.12-5.18,13.84-18.38,57.58-23.23,14.05-1.56,60.65.93,72.15,2.96,106.35,18.74,173.84,58.57,150.74,163.8-8.47,38.59-80.94,149.65-136,237.18-43.01,75.56-92.01,157.56-133.65,250.84-50.19,112.43-100.7,173.63-162.82,263.98-81.88,137.41-200.47,142.59-311.53,87.53-35.72-17.71-89.88-32.94-191.53-100.71-204.35-136.24-392.92-261.02-443.76-450.82-7.72-28.82-22.56-97.53-25.5-183.45-1.82-53.13-17.46-194.83-13.87-226.8Z"/>
        <path id="hand" class="cls-15" d="m4100.37,3420.3c-4.01-38.82-21.56-59.35-28.75-66.73-11.81-12.11-25.92-19.67-39.69-27.17-16.14-8.78-30.16-13.96-40-17.27,0,0-67.22-22.55-158.33-7.1-4.7.82-6.18,1.39-6.18,1.39-1.84.73-3.83,1.1-5.72,1.86-.56.21-1.49.66-2.38.24-.55-.26-1.03-.87-.98-1.52.32-1.05,1.65-1.84,1.87-1.98h0c3.28-2.06,23.32-30.23,50.79-55.38,11.75-10.71,23.44-19.15,46.84-35.03,40.37-27.45,64.09-43.55,99.21-61.66,21.6-11.18,55.84-28.64,104.09-43.35,39.63-12.11,70.79-16.87,92.62-20.12,0,0,31.89-4.47,74.93-5.63,0,0,22.21-.65,46.71,3.3,2.57.41,5.59,1.14,11.63,2.61,9.23,2.24,10.53,2.94,10.61,3.89.31,2.49-8.61,5.59-11.16,6.4-5.54,1.9-9.64,2.34-15.96,3.28-5.54.83-11.05,1.94-16.56,2.83-12.13,1.95-21.76,4.66-33.08,7.86-25.21,7.06-44.55,15.08-59.87,21.48-12.6,5.26-21.15,9.27-35.05,15.84,0,0-44.17,20.29-74.3,40.63-1.3.84-4.96,3.38-4.75,3.7.18.27,2.8-.9,5.4-2.12,18.18-9.58,33.68-16.18,44.98-20.59,10.69-4.17,21.22-7.62,42.29-14.53,18.27-6.01,27.38-8.93,35.91-11.08,18.79-4.73,34.66-6.96,45.02-8.07,15.19-1.63,27.22-1.82,38.36-1.97,8.85-.13,15.22-.03,23.72.14,14.97.29,27.43.51,42.32,2,18.39,1.76,32.69,3.17,33.04,6.79.37,3.53-12.71,7.1-28.74,12.28-3.76,1.21-55.73,18.26-100.98,42.1-18.81,9.91-13.21,8.81-37.71,22.18-22.39,12.23-41.17,20.88-63.64,38.56-1.95,1.5-14.12,11.09-13.38,12.23.74,1.14,11.79-5.43,16.19-7.9,14.06-7.98,35.48-18.73,67.5-30.36,7.76-2.27,18.94-5.45,32.54-9.04,29.84-7.98,44.79-12,61.47-14.52,19-2.87,32.41-3.19,54.5-3.68,2.81-.06.61-.01,57.81,5.33,3.7.37,11.95,1.09,12.71,4.52.82,3.39-5.98,7.73-10.22,10.33-24.84,14.98-47.46,21.27-47.46,21.27-33.35,11.11-78.9,40.31-108.38,59.15-14.04,8.96-1.45,1.56-75.74,54.65-29.71,22.17-55.51,50.89-89.13,66.5-18.38,8.54-34.38,11.52-44.91-6.56Z"/>
      </g>
      <g id="Right_Arm" data-name="Right Arm">
        <path id="arm-2" class="cls-10" d="m822.69,3424.37c-28.39,86.18-24.91,136.69-35.07,238.6-10.96,108.69-16.74,166.38-41.44,237.71-35.87,103.61-90.56,174.74-118.26,210.21-44.93,57.58-48.12,45.53-174.45,177.23-93.05,96.94-117.66,131.01-134.99,157.51-36.16,55.29-55.39,100.42-77.31,151.93-9.56,22.32-46.62,111.28-73.13,233.52-14.74,68.04-14.74,93.85-14.55,104.71.5,25.11,2.49,87.97,41.54,154.72,16.74,28.59,51.21,87.37,112.28,109.09,9.46,3.39,40.55,9.36,102.61,21.42.7.1,11.06,2.09,25.11,2.89,10.16.6,15.24.9,19.53-.5,13.95-4.38,19.93-22.91,22.32-30.78,19.03-61.87,33.57-145.35,33.57-145.35,2.59-14.74,3.09-14.65,21.92-86.48,25.31-96.74,80.1-306.35,121.34-477.21,42.14-174.25,32.58-152.43,97.63-430.68,9.36-40.15,21.62-91.95,35.87-164.08,22.22-111.88,35.47-202.14,42.64-251.46,19.43-133.1,12.65-120.45,28.59-214.89,10.06-59.58,18.63-99.53,12.85-101.32-6.87-2.29-31.98,52.7-48.62,103.21h0Z"/>
        <path id="hand-2" class="cls-15" d="m212.29,5135.55c-10.66-12.35-20.52-25.9-29.49-23.71-7.37,1.79-7.37,13.75-15.54,42.84-16.44,58.38-18.93,103.81-18.93,103.81-.8,15.14-3.29,70.04,9.17,156.81,8.47,59.08,15.64,107,39.35,162.49,0,0,18.23,42.74,49.91,85.78,11.96,16.24,21.72,23.91,30.98,34.47.3.3,1.49,1.79,3.49,3.09,2.29,1.49,5.98,3.09,8.47,2.59,5.48-1.2,7.17-13.35,7.47-15.44,4.08-29.39-14.74-67.25-14.74-67.25,0,0-32.58-65.35-20.42-176.04.5-4.28.6-3.09,6.38-41.74,2.19-14.94,3.29-22.62,4.78-22.62,2.29,0,3.89,18.63,4.28,23.51,2.09,24.11.6,42.54.5,44.03-1.59,21.12,1.49,40.35,7.77,78.7,3.89,23.81,8.77,52.8,21.72,89.07,13.05,36.46,27,60.07,32.58,69.14,6.77,10.96,16.04,21.82,34.67,43.64,8.37,9.76,13.85,15.74,17.33,14.35,4.98-1.99,2.99-17.63,1.39-29.29-5.28-38.36-7.87-57.48-14.55-82.49-16.24-61.07-8.67-115.17-6.77-115.37,2.29-.2,13.05,76.81,17.83,114.37,3.59,28.49,15.54,55.29,20.82,83.49.1.3.2,1.29.9,2.39,2.29,3.49,8.07,3.89,10.36,3.49,8.67-1.39,12.55-21.22,13.15-24.41,11.36-58.68,2.39-160.8,2.39-160.8-8.47-95.94,13.25-250.66,22.02-282.94.9-3.29,4.28-14.74-1.39-20.92-7.07-7.87-24.41-2.79-28.69-1.69-19.83,5.08-59.18,1.89-143.66-31.98-35.37-21.72-58.48-44.03-73.52-61.37h0Z"/>
      </g>
      <g id="feet">
        <path id="right_foot" data-name="right foot" class="cls-15" d="m1391.16,6691.21c1.79,19.63-100.42,31.18-255.04,97.53-53.2,22.81-110.88,47.62-169.76,87.17-167.77,112.88-223.76,264.91-247.57,254.15-32.48-14.74,73.62-298.48,47.82-309.44-25.31-10.76-143.36,253.75-189.39,238.21-20.82-7.07-21.82-69.84-12.15-119.05,32.88-167.87,204.23-255.34,193.17-271.88-7.57-11.36-92.55,23.11-197.86,89.07-168.37,105.4-248.27,203.24-270.09,186.6-15.44-11.86,11.26-72.93,29.09-104.11,17.43-30.49,40.95-57.98,97.53-101.22,30.09-23.01,91.06-67.55,191.28-115.37,67.05-31.98,100.52-47.92,149.04-59.08,105.6-24.21,190.68-7.57,209.12-3.79,88.87,18.63,89.86,47.32,192.18,82.49,135.19,46.43,230.93,29.79,232.63,48.72Z"/>
        <path id="left_foot" data-name="left foot" class="cls-15" d="m2457.06,6758.46c3.49-30.09,119.75-13.85,302.37-72.23,108.29-34.67,162.39-52,216.69-87.97,62.57-41.54,109.39-90.86,163.79-77.41,10.56,2.59,18.83,6.97,55.59,36.56,77.81,62.66,114.67,100.12,114.67,100.12,51.91,52.8,80.3,87.27,163.19,185.2,102.61,121.25,121.44,142.07,115.37,150.04-15.44,20.12-178.83-56.29-287.42-117.16-28.19-15.84-61.07-35.27-69.84-26.3-16.24,16.74,76.01,105.21,108.99,255.24,4.68,21.12,19.93,90.76.7,99.83-18.63,8.87-53.3-46.53-139.28-131.51-72.43-71.63-153.72-136.99-161.69-129.41-4.18,3.99,16.74,24.21,37.16,66.45,32.28,66.85,33.87,128.62,34.57,172.55.6,40.35,1.99,124.83-22.52,130.81-16.84,4.08-32.88-31.98-89.27-113.97-47.92-69.44-84.28-121.64-140.67-175.14-40.65-38.56-77.81-64.66-108.99-86.48-19.33-13.55-49.91-34.17-120.25-74.52-140.67-80.6-175.04-88.27-173.15-104.71h0Z"/>
      </g>
      <g id="Traffic_cone" data-name="Traffic cone">
        <rect class="cls-11" x="1876.91" y="583.77" width="155.28" height="1859.94" rx="43.13" ry="43.13" transform="translate(39.93 3077.67) rotate(-77)"/>
        <path class="cls-3" d="m2250.29,30.02l-936.89,1256.01,1317.24,304.11L2339.16,50.55c-8.07-42.61-62.94-55.27-88.88-20.51h0Z"/>
        <polygon class="cls-9" points="2511.35 960.05 1700.94 766.49 1506.84 1026.7 2570.45 1272.25 2511.35 960.05"/>
        <polygon class="cls-9" points="2389.52 316.57 2088.4 247.05 1894.95 506.38 2449.71 634.46 2389.52 316.57"/>
      </g>
    </g>
  </g>
</svg>