<?xml version="1.0" encoding="UTF-8" standalone="no"?>
<svg xmlns:dc="http://purl.org/dc/elements/1.1/"
  xmlns:cc="http://creativecommons.org/ns#"
  xmlns:rdf="http://www.w3.org/1999/02/22-rdf-syntax-ns#"
  xmlns:svg="http://www.w3.org/2000/svg"
  xmlns="http://www.w3.org/2000/svg" viewBox="0 0 610.22668 325.2775459005011" height="325.2775459005011" width="610.22668" xml:space="preserve" id="svg2" version="1.1">
  <metadata id="metadata8">
    <rdf:RDF>
      <cc:Work rdf:about="">
        <dc:format>image/svg+xml</dc:format>
        <dc:type rdf:resource="http://purl.org/dc/dcmitype/StillImage" />
      </cc:Work>
    </rdf:RDF>
  </metadata>
  <defs id="defs6" />
  <path fill="#000000" d="M207.25 248.78L207.25 248.78Q207.25 252.60 206.06 255.41Q204.88 258.23 202.72 260.07Q200.56 261.92 197.55 262.83Q194.54 263.74 190.94 263.74L190.94 263.74Q189.16 263.74 187.02 263.59Q184.88 263.44 183.14 263.02L183.14 263.02L183.14 234.55Q184.88 234.13 187.02 233.98Q189.16 233.83 190.94 233.83L190.94 233.83Q194.54 233.83 197.55 234.74Q200.56 235.65 202.72 237.49Q204.88 239.34 206.06 242.15Q207.25 244.97 207.25 248.78ZM191.28 260.14L191.28 260.14Q197.12 260.14 200.00 257.15Q202.89 254.16 202.89 248.78L202.89 248.78Q202.89 243.40 200.00 240.42Q197.12 237.43 191.28 237.43L191.28 237.43Q189.54 237.43 188.59 237.47Q187.63 237.51 187.25 237.56L187.25 237.56L187.25 260.01Q187.63 260.05 188.59 260.10Q189.54 260.14 191.28 260.14ZM216.61 241.45L216.61 263.48L212.67 263.48L212.67 241.45L216.61 241.45ZM214.62 237.47L214.62 237.47Q213.56 237.47 212.82 236.77Q212.08 236.07 212.08 234.89L212.08 234.89Q212.08 233.70 212.82 233.00Q213.56 232.30 214.62 232.30L214.62 232.30Q215.68 232.30 216.42 233.00Q217.16 233.70 217.16 234.89L217.16 234.89Q217.16 236.07 216.42 236.77Q215.68 237.47 214.62 237.47ZM242.41 252.47L242.41 252.47Q242.41 255.10 241.65 257.21Q240.89 259.33 239.51 260.86Q238.13 262.38 236.23 263.21Q234.32 264.04 232.08 264.04L232.08 264.04Q229.83 264.04 227.92 263.21Q226.02 262.38 224.64 260.86Q223.26 259.33 222.50 257.21Q221.74 255.10 221.74 252.47L221.74 252.47Q221.74 249.89 222.50 247.75Q223.26 245.61 224.64 244.08Q226.02 242.56 227.92 241.73Q229.83 240.90 232.08 240.90L232.08 240.90Q234.32 240.90 236.23 241.73Q238.13 242.56 239.51 244.08Q240.89 245.61 241.65 247.75Q242.41 249.89 242.41 252.47ZM238.30 252.47L238.30 252.47Q238.30 248.74 236.63 246.56Q234.96 244.38 232.08 244.38L232.08 244.38Q229.19 244.38 227.52 246.56Q225.85 248.74 225.85 252.47L225.85 252.47Q225.85 256.20 227.52 258.38Q229.19 260.56 232.08 260.56L232.08 260.56Q234.96 260.56 236.63 258.38Q238.30 256.20 238.30 252.47ZM228.05 237.39L228.05 237.39Q227.08 237.39 226.34 236.69Q225.59 235.99 225.59 234.89L225.59 234.89Q225.59 233.79 226.34 233.09Q227.08 232.39 228.05 232.39L228.05 232.39Q229.03 232.39 229.77 233.09Q230.51 233.79 230.51 234.89L230.51 234.89Q230.51 235.99 229.77 236.69Q229.03 237.39 228.05 237.39ZM236.10 237.39L236.10 237.39Q235.13 237.39 234.38 236.69Q233.64 235.99 233.64 234.89L233.64 234.89Q233.64 233.79 234.38 233.09Q235.13 232.39 236.10 232.39L236.10 232.39Q237.07 232.39 237.82 233.09Q238.56 233.79 238.56 234.89L238.56 234.89Q238.56 235.99 237.82 236.69Q237.07 237.39 236.10 237.39ZM262.16 241.45L262.16 244.42Q261.27 245.39 259.80 247.17Q258.34 248.95 256.67 251.11Q255.00 253.27 253.32 255.65Q251.65 258.02 250.38 260.18L250.38 260.18L262.49 260.18L262.49 263.48L245.67 263.48L245.67 260.86Q246.69 258.99 248.17 256.75Q249.66 254.50 251.29 252.28Q252.92 250.05 254.47 248.08Q256.01 246.11 257.16 244.76L257.16 244.76L246.27 244.76L246.27 241.45L262.16 241.45ZM265.84 252.51L265.84 252.51Q265.84 249.59 266.69 247.41Q267.54 245.23 268.93 243.78Q270.33 242.34 272.15 241.62Q273.98 240.90 275.88 240.90L275.88 240.90Q280.33 240.90 282.70 243.68Q285.07 246.45 285.07 252.13L285.07 252.13Q285.07 252.38 285.07 252.79Q285.07 253.19 285.03 253.53L285.03 253.53L269.95 253.53Q270.20 256.96 271.94 258.74Q273.68 260.52 277.36 260.52L277.36 260.52Q279.44 260.52 280.86 260.16Q282.28 259.80 283.00 259.46L283.00 259.46L283.55 262.76Q282.83 263.15 281.03 263.57Q279.23 263.99 276.94 263.99L276.94 263.99Q274.06 263.99 271.96 263.12Q269.87 262.26 268.51 260.73Q267.15 259.21 266.50 257.11Q265.84 255.01 265.84 252.51ZM270.04 250.35L280.97 250.35Q281.01 247.68 279.63 245.97Q278.25 244.25 275.84 244.25L275.84 244.25Q274.48 244.25 273.45 244.78Q272.41 245.31 271.69 246.16Q270.97 247.00 270.56 248.11Q270.16 249.21 270.04 250.35L270.04 250.35ZM295.45 260.65L295.45 260.65Q297.87 260.65 299.03 260.01Q300.20 259.38 300.20 257.98L300.20 257.98Q300.20 256.54 299.06 255.69Q297.91 254.84 295.28 253.78L295.28 253.78Q294.01 253.27 292.85 252.75Q291.68 252.22 290.84 251.50Q289.99 250.78 289.48 249.76Q288.97 248.74 288.97 247.26L288.97 247.26Q288.97 244.34 291.13 242.62Q293.29 240.90 297.02 240.90L297.02 240.90Q297.95 240.90 298.89 241.01Q299.82 241.12 300.62 241.26Q301.43 241.41 302.04 241.58Q302.66 241.75 303.00 241.88L303.00 241.88L302.28 245.27Q301.64 244.93 300.28 244.57Q298.93 244.21 297.02 244.21L297.02 244.21Q295.37 244.21 294.14 244.87Q292.91 245.52 292.91 246.92L292.91 246.92Q292.91 247.64 293.19 248.19Q293.46 248.74 294.04 249.19Q294.61 249.63 295.45 250.01Q296.30 250.39 297.49 250.82L297.49 250.82Q299.06 251.41 300.28 251.98Q301.51 252.55 302.38 253.32Q303.25 254.08 303.72 255.16Q304.18 256.24 304.18 257.81L304.18 257.81Q304.18 260.86 301.92 262.43Q299.65 263.99 295.45 263.99L295.45 263.99Q292.53 263.99 290.88 263.51Q289.23 263.02 288.63 262.76L288.63 262.76L289.35 259.38Q290.03 259.63 291.51 260.14Q293.00 260.65 295.45 260.65ZM316.26 260.65L316.26 260.65Q317.65 260.65 318.73 260.58Q319.81 260.52 320.53 260.35L320.53 260.35L320.53 253.78Q320.11 253.57 319.16 253.42Q318.20 253.27 316.85 253.27L316.85 253.27Q315.96 253.27 314.96 253.40Q313.97 253.53 313.14 253.93Q312.32 254.33 311.77 255.03Q311.21 255.73 311.21 256.88L311.21 256.88Q311.21 258.99 312.57 259.82Q313.93 260.65 316.26 260.65ZM315.92 240.90L315.92 240.90Q318.29 240.90 319.92 241.52Q321.55 242.13 322.55 243.26Q323.54 244.38 323.97 245.92Q324.39 247.47 324.39 249.33L324.39 249.33L324.39 263.10Q323.88 263.19 322.97 263.34Q322.06 263.48 320.92 263.61Q319.77 263.74 318.44 263.84Q317.10 263.95 315.79 263.95L315.79 263.95Q313.93 263.95 312.36 263.57Q310.79 263.19 309.65 262.36Q308.50 261.54 307.87 260.18Q307.23 258.82 307.23 256.92L307.23 256.92Q307.23 255.10 307.97 253.78Q308.71 252.47 309.99 251.66Q311.26 250.86 312.95 250.48Q314.65 250.10 316.51 250.10L316.51 250.10Q317.10 250.10 317.74 250.16Q318.37 250.22 318.95 250.33Q319.52 250.44 319.94 250.52Q320.37 250.61 320.53 250.65L320.53 250.65L320.53 249.55Q320.53 248.57 320.32 247.62Q320.11 246.67 319.56 245.92Q319.01 245.18 318.06 244.74Q317.10 244.29 315.58 244.29L315.58 244.29Q313.63 244.29 312.17 244.57Q310.71 244.84 309.99 245.14L309.99 245.14L309.52 241.88Q310.28 241.54 312.06 241.22Q313.84 240.90 315.92 240.90ZM330.49 263.48L330.49 242.09Q331.85 241.75 334.09 241.37Q336.34 240.99 339.26 240.99L339.26 240.99Q341.89 240.99 343.62 241.73Q345.36 242.47 346.40 243.81Q347.44 245.14 347.86 247.00Q348.28 248.87 348.28 251.11L348.28 251.11L348.28 263.48L344.34 263.48L344.34 251.96Q344.34 249.93 344.07 248.49Q343.79 247.05 343.16 246.16Q342.52 245.27 341.46 244.87Q340.40 244.46 338.84 244.46L338.84 244.46Q338.20 244.46 337.52 244.50Q336.85 244.55 336.23 244.61Q335.62 244.67 335.13 244.76Q334.64 244.84 334.43 244.89L334.43 244.89L334.43 263.48L330.49 263.48ZM367.52 241.45L371.59 241.45Q369.93 247.64 367.71 253.32Q365.48 258.99 363.41 263.48L363.41 263.48L359.85 263.48Q357.77 258.99 355.55 253.32Q353.33 247.64 351.67 241.45L351.67 241.45L355.91 241.45Q356.42 243.53 357.12 245.88Q357.82 248.23 358.60 250.54Q359.38 252.85 360.19 255.01Q360.99 257.17 361.71 258.87L361.71 258.87Q362.43 257.17 363.24 255.01Q364.04 252.85 364.83 250.54Q365.61 248.23 366.31 245.88Q367.01 243.53 367.52 241.45L367.52 241.45ZM374.00 252.51L374.00 252.51Q374.00 249.59 374.85 247.41Q375.69 245.23 377.09 243.78Q378.49 242.34 380.31 241.62Q382.13 240.90 384.04 240.90L384.04 240.90Q388.49 240.90 390.86 243.68Q393.23 246.45 393.23 252.13L393.23 252.13Q393.23 252.38 393.23 252.79Q393.23 253.19 393.19 253.53L393.19 253.53L378.11 253.53Q378.36 256.96 380.10 258.74Q381.84 260.52 385.52 260.52L385.52 260.52Q387.60 260.52 389.02 260.16Q390.44 259.80 391.16 259.46L391.16 259.46L391.71 262.76Q390.99 263.15 389.19 263.57Q387.39 263.99 385.10 263.99L385.10 263.99Q382.22 263.99 380.12 263.12Q378.02 262.26 376.67 260.73Q375.31 259.21 374.66 257.11Q374.00 255.01 374.00 252.51ZM378.19 250.35L389.12 250.35Q389.17 247.68 387.79 245.97Q386.41 244.25 384.00 244.25L384.00 244.25Q382.64 244.25 381.60 244.78Q380.57 245.31 379.85 246.16Q379.13 247.00 378.72 248.11Q378.32 249.21 378.19 250.35L378.19 250.35ZM406.62 240.99L406.62 240.99Q407.13 240.99 407.79 241.05Q408.44 241.12 409.08 241.22Q409.71 241.33 410.24 241.43Q410.77 241.54 411.03 241.62L411.03 241.62L410.35 245.06Q409.88 244.89 408.80 244.65Q407.72 244.42 406.03 244.42L406.03 244.42Q404.93 244.42 403.85 244.65Q402.77 244.89 402.43 244.97L402.43 244.97L402.43 263.48L398.49 263.48L398.49 242.39Q399.89 241.88 401.96 241.43Q404.04 240.99 406.62 240.99ZM418.36 230.61L418.36 242.43Q419.08 241.96 420.54 241.45Q422.00 240.95 423.91 240.95L423.91 240.95Q426.28 240.95 428.12 241.79Q429.96 242.64 431.24 244.17Q432.51 245.69 433.16 247.81Q433.82 249.93 433.82 252.47L433.82 252.47Q433.82 255.14 433.04 257.28Q432.25 259.42 430.81 260.90Q429.37 262.38 427.34 263.19Q425.30 263.99 422.76 263.99L422.76 263.99Q420.01 263.99 417.89 263.61Q415.77 263.23 414.42 262.85L414.42 262.85L414.42 231.29L418.36 230.61ZM418.36 246.11L418.36 260.05Q418.95 260.22 420.03 260.37Q421.11 260.52 422.72 260.52L422.72 260.52Q425.90 260.52 427.80 258.42Q429.71 256.32 429.71 252.47L429.71 252.47Q429.71 250.78 429.37 249.29Q429.03 247.81 428.27 246.73Q427.51 245.65 426.30 245.03Q425.09 244.42 423.40 244.42L423.40 244.42Q421.79 244.42 420.43 244.97Q419.08 245.52 418.36 246.11L418.36 246.11ZM446.40 260.65L446.40 260.65Q447.80 260.65 448.88 260.58Q449.96 260.52 450.68 260.35L450.68 260.35L450.68 253.78Q450.26 253.57 449.30 253.42Q448.35 253.27 447.00 253.27L447.00 253.27Q446.11 253.27 445.11 253.40Q444.12 253.53 443.29 253.93Q442.46 254.33 441.91 255.03Q441.36 255.73 441.36 256.88L441.36 256.88Q441.36 258.99 442.72 259.82Q444.07 260.65 446.40 260.65ZM446.06 240.90L446.06 240.90Q448.44 240.90 450.07 241.52Q451.70 242.13 452.69 243.26Q453.69 244.38 454.11 245.92Q454.54 247.47 454.54 249.33L454.54 249.33L454.54 263.10Q454.03 263.19 453.12 263.34Q452.21 263.48 451.06 263.61Q449.92 263.74 448.58 263.84Q447.25 263.95 445.94 263.95L445.94 263.95Q444.07 263.95 442.51 263.57Q440.94 263.19 439.79 262.36Q438.65 261.54 438.01 260.18Q437.38 258.82 437.38 256.92L437.38 256.92Q437.38 255.10 438.12 253.78Q438.86 252.47 440.13 251.66Q441.40 250.86 443.10 250.48Q444.79 250.10 446.66 250.10L446.66 250.10Q447.25 250.10 447.89 250.16Q448.52 250.22 449.09 250.33Q449.66 250.44 450.09 250.52Q450.51 250.61 450.68 250.65L450.68 250.65L450.68 249.55Q450.68 248.57 450.47 247.62Q450.26 246.67 449.71 245.92Q449.16 245.18 448.20 244.74Q447.25 244.29 445.72 244.29L445.72 244.29Q443.78 244.29 442.31 244.57Q440.85 244.84 440.13 245.14L440.13 245.14L439.67 241.88Q440.43 241.54 442.21 241.22Q443.99 240.90 446.06 240.90ZM460.64 263.48L460.64 242.09Q461.99 241.75 464.24 241.37Q466.48 240.99 469.41 240.99L469.41 240.99Q472.03 240.99 473.77 241.73Q475.51 242.47 476.55 243.81Q477.58 245.14 478.01 247.00Q478.43 248.87 478.43 251.11L478.43 251.11L478.43 263.48L474.49 263.48L474.49 251.96Q474.49 249.93 474.22 248.49Q473.94 247.05 473.30 246.16Q472.67 245.27 471.61 244.87Q470.55 244.46 468.98 244.46L468.98 244.46Q468.35 244.46 467.67 244.50Q466.99 244.55 466.38 244.61Q465.76 244.67 465.28 244.76Q464.79 244.84 464.58 244.89L464.58 244.89L464.58 263.48L460.64 263.48ZM498.77 260.05L498.77 246.11Q498.05 245.52 496.69 244.97Q495.33 244.42 493.73 244.42L493.73 244.42Q492.03 244.42 490.82 245.03Q489.62 245.65 488.85 246.73Q488.09 247.81 487.75 249.29Q487.41 250.78 487.41 252.47L487.41 252.47Q487.41 256.32 489.32 258.42Q491.23 260.52 494.40 260.52L494.40 260.52Q496.01 260.52 497.09 260.37Q498.17 260.22 498.77 260.05L498.77 260.05ZM498.77 242.43L498.77 231.29L502.71 230.61L502.71 262.85Q501.35 263.23 499.23 263.61Q497.11 263.99 494.36 263.99L494.36 263.99Q491.82 263.99 489.79 263.19Q487.75 262.38 486.31 260.90Q484.87 259.42 484.09 257.28Q483.30 255.14 483.30 252.47L483.30 252.47Q483.30 249.93 483.96 247.81Q484.62 245.69 485.89 244.17Q487.16 242.64 489.00 241.79Q490.84 240.95 493.22 240.95L493.22 240.95Q495.12 240.95 496.58 241.45Q498.05 241.96 498.77 242.43L498.77 242.43Z"/><path fill="#000000" d="M197.51 304.98L197.51 304.98Q198.18 305.83 199.22 307.21Q200.26 308.59 201.36 310.26Q202.46 311.93 203.54 313.75Q204.62 315.58 205.39 317.27L205.39 317.27L200.89 317.27Q200.05 315.66 199.05 314.01Q198.06 312.36 197.04 310.85Q196.02 309.35 195.03 308.03Q194.03 306.72 193.23 305.75L193.23 305.75Q192.68 305.79 192.10 305.79Q191.53 305.79 190.94 305.79L190.94 305.79L187.25 305.79L187.25 317.27L183.14 317.27L183.14 288.33Q184.88 287.91 187.02 287.76Q189.16 287.61 190.94 287.61L190.94 287.61Q197.12 287.61 200.37 289.94Q203.61 292.27 203.61 296.89L203.61 296.89Q203.61 299.82 202.06 301.89Q200.51 303.97 197.51 304.98ZM191.28 291.22L191.28 291.22Q188.65 291.22 187.25 291.34L187.25 291.34L187.25 302.40L190.18 302.40Q192.29 302.40 193.99 302.19Q195.68 301.98 196.85 301.38Q198.01 300.79 198.65 299.71Q199.28 298.63 199.28 296.85L199.28 296.85Q199.28 295.20 198.65 294.10Q198.01 293.00 196.93 292.36Q195.85 291.72 194.39 291.47Q192.93 291.22 191.28 291.22ZM228.56 306.26L228.56 306.26Q228.56 308.88 227.80 311.00Q227.03 313.12 225.66 314.64Q224.28 316.17 222.37 317.00Q220.47 317.82 218.22 317.82L218.22 317.82Q215.98 317.82 214.07 317.00Q212.16 316.17 210.79 314.64Q209.41 313.12 208.65 311.00Q207.88 308.88 207.88 306.26L207.88 306.26Q207.88 303.67 208.65 301.53Q209.41 299.39 210.79 297.87Q212.16 296.34 214.07 295.52Q215.98 294.69 218.22 294.69L218.22 294.69Q220.47 294.69 222.37 295.52Q224.28 296.34 225.66 297.87Q227.03 299.39 227.80 301.53Q228.56 303.67 228.56 306.26ZM224.45 306.26L224.45 306.26Q224.45 302.53 222.78 300.35Q221.10 298.16 218.22 298.16L218.22 298.16Q215.34 298.16 213.67 300.35Q211.99 302.53 211.99 306.26L211.99 306.26Q211.99 309.98 213.67 312.17Q215.34 314.35 218.22 314.35L218.22 314.35Q221.10 314.35 222.78 312.17Q224.45 309.98 224.45 306.26ZM237.37 288.42L237.37 295.24L245.72 295.24L245.72 298.54L237.37 298.54L237.37 308.71Q237.37 310.36 237.63 311.45Q237.88 312.53 238.39 313.14Q238.90 313.75 239.66 314.01Q240.42 314.26 241.44 314.26L241.44 314.26Q243.22 314.26 244.30 313.86Q245.38 313.46 245.80 313.29L245.80 313.29L246.56 316.55Q245.97 316.85 244.49 317.29Q243.01 317.74 241.10 317.74L241.10 317.74Q238.85 317.74 237.39 317.16Q235.93 316.59 235.04 315.45Q234.15 314.30 233.79 312.63Q233.43 310.96 233.43 308.75L233.43 308.75L233.43 289.10L237.37 288.42ZM253.98 288.42L253.98 295.24L262.32 295.24L262.32 298.54L253.98 298.54L253.98 308.71Q253.98 310.36 254.23 311.45Q254.49 312.53 255.00 313.14Q255.50 313.75 256.27 314.01Q257.03 314.26 258.05 314.26L258.05 314.26Q259.83 314.26 260.91 313.86Q261.99 313.46 262.41 313.29L262.41 313.29L263.17 316.55Q262.58 316.85 261.10 317.29Q259.61 317.74 257.71 317.74L257.71 317.74Q255.46 317.74 254.00 317.16Q252.54 316.59 251.65 315.45Q250.76 314.30 250.40 312.63Q250.04 310.96 250.04 308.75L250.04 308.75L250.04 289.10L253.98 288.42ZM265.67 306.30L265.67 306.30Q265.67 303.37 266.52 301.19Q267.37 299.01 268.76 297.57Q270.16 296.13 271.98 295.41Q273.81 294.69 275.71 294.69L275.71 294.69Q280.16 294.69 282.53 297.46Q284.91 300.24 284.91 305.92L284.91 305.92Q284.91 306.17 284.91 306.57Q284.91 306.98 284.86 307.31L284.86 307.31L269.78 307.31Q270.04 310.75 271.77 312.53Q273.51 314.30 277.19 314.30L277.19 314.30Q279.27 314.30 280.69 313.94Q282.11 313.58 282.83 313.25L282.83 313.25L283.38 316.55Q282.66 316.93 280.86 317.36Q279.06 317.78 276.77 317.78L276.77 317.78Q273.89 317.78 271.79 316.91Q269.70 316.04 268.34 314.52Q266.98 312.99 266.33 310.89Q265.67 308.80 265.67 306.30ZM269.87 304.14L280.80 304.14Q280.84 301.47 279.46 299.75Q278.08 298.04 275.67 298.04L275.67 298.04Q274.31 298.04 273.28 298.57Q272.24 299.10 271.52 299.94Q270.80 300.79 270.40 301.89Q269.99 302.99 269.87 304.14L269.87 304.14ZM290.16 317.27L290.16 295.88Q291.51 295.54 293.76 295.16Q296.01 294.77 298.93 294.77L298.93 294.77Q301.56 294.77 303.29 295.52Q305.03 296.26 306.07 297.59Q307.10 298.93 307.53 300.79Q307.95 302.65 307.95 304.90L307.95 304.90L307.95 317.27L304.01 317.27L304.01 305.75Q304.01 303.71 303.74 302.27Q303.46 300.83 302.83 299.94Q302.19 299.05 301.13 298.65Q300.07 298.25 298.50 298.25L298.50 298.25Q297.87 298.25 297.19 298.29Q296.51 298.33 295.90 298.40Q295.28 298.46 294.80 298.54Q294.31 298.63 294.10 298.67L294.10 298.67L294.10 317.27L290.16 317.27ZM317.99 284.39L317.99 296.21Q318.71 295.75 320.17 295.24Q321.64 294.73 323.54 294.73L323.54 294.73Q325.92 294.73 327.76 295.58Q329.60 296.43 330.87 297.95Q332.14 299.48 332.80 301.60Q333.46 303.71 333.46 306.26L333.46 306.26Q333.46 308.92 332.67 311.06Q331.89 313.20 330.45 314.69Q329.01 316.17 326.97 316.97Q324.94 317.78 322.40 317.78L322.40 317.78Q319.65 317.78 317.53 317.40Q315.41 317.02 314.05 316.63L314.05 316.63L314.05 285.07L317.99 284.39ZM317.99 299.90L317.99 313.84Q318.59 314.01 319.67 314.16Q320.75 314.30 322.36 314.30L322.36 314.30Q325.53 314.30 327.44 312.21Q329.35 310.11 329.35 306.26L329.35 306.26Q329.35 304.56 329.01 303.08Q328.67 301.60 327.91 300.51Q327.14 299.43 325.94 298.82Q324.73 298.21 323.03 298.21L323.03 298.21Q321.42 298.21 320.07 298.76Q318.71 299.31 317.99 299.90L317.99 299.90ZM356.12 295.24L356.12 316.63Q354.77 316.97 352.54 317.36Q350.32 317.74 347.39 317.74L347.39 317.74Q344.85 317.74 343.12 317.00Q341.38 316.25 340.32 314.90Q339.26 313.54 338.79 311.70Q338.33 309.86 338.33 307.61L338.33 307.61L338.33 295.24L342.27 295.24L342.27 306.76Q342.27 310.79 343.54 312.53Q344.81 314.26 347.82 314.26L347.82 314.26Q348.45 314.26 349.13 314.22Q349.81 314.18 350.40 314.11Q351.00 314.05 351.48 313.99Q351.97 313.92 352.18 313.84L352.18 313.84L352.18 295.24L356.12 295.24ZM370.61 294.77L370.61 294.77Q371.12 294.77 371.78 294.84Q372.43 294.90 373.07 295.01Q373.70 295.11 374.23 295.22Q374.76 295.33 375.02 295.41L375.02 295.41L374.34 298.84Q373.87 298.67 372.79 298.44Q371.71 298.21 370.02 298.21L370.02 298.21Q368.92 298.21 367.84 298.44Q366.76 298.67 366.42 298.76L366.42 298.76L366.42 317.27L362.48 317.27L362.48 296.17Q363.87 295.66 365.95 295.22Q368.03 294.77 370.61 294.77ZM392.22 316.00L392.22 315.07Q391.71 315.41 390.25 315.94Q388.79 316.47 386.84 316.47L386.84 316.47Q384.85 316.47 383.09 315.83Q381.33 315.19 380.02 313.86Q378.70 312.53 377.94 310.53Q377.18 308.54 377.18 305.79L377.18 305.79Q377.18 303.37 377.90 301.36Q378.62 299.35 379.99 297.89Q381.37 296.43 383.36 295.60Q385.35 294.77 387.85 294.77L387.85 294.77Q390.61 294.77 392.66 295.18Q394.72 295.58 396.11 295.92L396.11 295.92L396.11 315.58Q396.11 320.66 393.49 322.95Q390.86 325.24 385.52 325.24L385.52 325.24Q383.45 325.24 381.60 324.90Q379.76 324.56 378.41 324.09L378.41 324.09L379.13 320.66Q380.31 321.13 382.03 321.49Q383.74 321.85 385.61 321.85L385.61 321.85Q389.12 321.85 390.67 320.45Q392.22 319.05 392.22 316.00L392.22 316.00ZM392.17 311.59L392.17 298.71Q391.58 298.54 390.59 298.40Q389.59 298.25 387.90 298.25L387.90 298.25Q384.72 298.25 383.00 300.32Q381.29 302.40 381.29 305.83L381.29 305.83Q381.29 307.74 381.77 309.09Q382.26 310.45 383.09 311.34Q383.91 312.23 384.99 312.65Q386.07 313.08 387.22 313.08L387.22 313.08Q388.79 313.08 390.10 312.63Q391.41 312.19 392.17 311.59L392.17 311.59ZM400.18 306.42L400.18 302.74L410.65 302.74L410.65 306.42L400.18 306.42ZM421.79 314.35L421.79 314.35Q428.23 314.35 428.23 309.94L428.23 309.94Q428.23 308.59 427.66 307.63Q427.08 306.68 426.11 305.98Q425.14 305.28 423.89 304.77Q422.64 304.26 421.24 303.76L421.24 303.76Q419.63 303.21 418.19 302.51Q416.75 301.81 415.69 300.85Q414.63 299.90 414.01 298.59Q413.40 297.27 413.40 295.41L413.40 295.41Q413.40 291.55 416.03 289.39Q418.65 287.23 423.27 287.23L423.27 287.23Q425.94 287.23 428.12 287.81Q430.30 288.38 431.32 289.06L431.32 289.06L430.01 292.40Q429.12 291.85 427.36 291.32Q425.60 290.79 423.27 290.79L423.27 290.79Q422.08 290.79 421.07 291.05Q420.05 291.30 419.29 291.81Q418.53 292.32 418.08 293.10Q417.64 293.88 417.64 294.94L417.64 294.94Q417.64 296.13 418.10 296.94Q418.57 297.74 419.42 298.35Q420.26 298.97 421.39 299.48Q422.51 299.99 423.86 300.49L423.86 300.49Q425.77 301.26 427.36 302.02Q428.95 302.78 430.11 303.84Q431.28 304.90 431.91 306.36Q432.55 307.82 432.55 309.90L432.55 309.90Q432.55 313.75 429.73 315.83Q426.91 317.91 421.79 317.91L421.79 317.91Q420.05 317.91 418.59 317.67Q417.13 317.44 415.98 317.12Q414.84 316.80 414.01 316.44Q413.19 316.08 412.72 315.83L412.72 315.83L413.95 312.44Q414.93 312.99 416.92 313.67Q418.91 314.35 421.79 314.35ZM440.51 288.42L440.51 295.24L448.86 295.24L448.86 298.54L440.51 298.54L440.51 308.71Q440.51 310.36 440.77 311.45Q441.02 312.53 441.53 313.14Q442.04 313.75 442.80 314.01Q443.56 314.26 444.58 314.26L444.58 314.26Q446.36 314.26 447.44 313.86Q448.52 313.46 448.94 313.29L448.94 313.29L449.71 316.55Q449.11 316.85 447.63 317.29Q446.15 317.74 444.24 317.74L444.24 317.74Q442.00 317.74 440.54 317.16Q439.07 316.59 438.18 315.45Q437.29 314.30 436.93 312.63Q436.57 310.96 436.57 308.75L436.57 308.75L436.57 289.10L440.51 288.42ZM470.97 295.24L470.97 316.63Q469.62 316.97 467.39 317.36Q465.17 317.74 462.25 317.74L462.25 317.74Q459.71 317.74 457.97 317.00Q456.23 316.25 455.17 314.90Q454.11 313.54 453.65 311.70Q453.18 309.86 453.18 307.61L453.18 307.61L453.18 295.24L457.12 295.24L457.12 306.76Q457.12 310.79 458.39 312.53Q459.66 314.26 462.67 314.26L462.67 314.26Q463.31 314.26 463.98 314.22Q464.66 314.18 465.26 314.11Q465.85 314.05 466.34 313.99Q466.82 313.92 467.03 313.84L467.03 313.84L467.03 295.24L470.97 295.24ZM481.02 288.42L481.02 295.24L489.36 295.24L489.36 298.54L481.02 298.54L481.02 308.71Q481.02 310.36 481.27 311.45Q481.52 312.53 482.03 313.14Q482.54 313.75 483.30 314.01Q484.07 314.26 485.08 314.26L485.08 314.26Q486.86 314.26 487.94 313.86Q489.02 313.46 489.45 313.29L489.45 313.29L490.21 316.55Q489.62 316.85 488.13 317.29Q486.65 317.74 484.74 317.74L484.74 317.74Q482.50 317.74 481.04 317.16Q479.58 316.59 478.69 315.45Q477.80 314.30 477.44 312.63Q477.08 310.96 477.08 308.75L477.08 308.75L477.08 289.10L481.02 288.42ZM497.62 288.42L497.62 295.24L505.97 295.24L505.97 298.54L497.62 298.54L497.62 308.71Q497.62 310.36 497.88 311.45Q498.13 312.53 498.64 313.14Q499.15 313.75 499.91 314.01Q500.67 314.26 501.69 314.26L501.69 314.26Q503.47 314.26 504.55 313.86Q505.63 313.46 506.05 313.29L506.05 313.29L506.82 316.55Q506.22 316.85 504.74 317.29Q503.26 317.74 501.35 317.74L501.35 317.74Q499.11 317.74 497.64 317.16Q496.18 316.59 495.29 315.45Q494.40 314.30 494.04 312.63Q493.68 310.96 493.68 308.75L493.68 308.75L493.68 289.10L497.62 288.42ZM524.36 316.00L524.36 315.07Q523.85 315.41 522.39 315.94Q520.92 316.47 518.97 316.47L518.97 316.47Q516.98 316.47 515.23 315.83Q513.47 315.19 512.15 313.86Q510.84 312.53 510.08 310.53Q509.32 308.54 509.32 305.79L509.32 305.79Q509.32 303.37 510.04 301.36Q510.76 299.35 512.13 297.89Q513.51 296.43 515.50 295.60Q517.49 294.77 519.99 294.77L519.99 294.77Q522.75 294.77 524.80 295.18Q526.85 295.58 528.25 295.92L528.25 295.92L528.25 315.58Q528.25 320.66 525.63 322.95Q523.00 325.24 517.66 325.24L517.66 325.24Q515.59 325.24 513.74 324.90Q511.90 324.56 510.54 324.09L510.54 324.09L511.26 320.66Q512.45 321.13 514.17 321.49Q515.88 321.85 517.75 321.85L517.75 321.85Q521.26 321.85 522.81 320.45Q524.36 319.05 524.36 316.00L524.36 316.00ZM524.31 311.59L524.31 298.71Q523.72 298.54 522.72 298.40Q521.73 298.25 520.03 298.25L520.03 298.25Q516.86 298.25 515.14 300.32Q513.43 302.40 513.43 305.83L513.43 305.83Q513.43 307.74 513.91 309.09Q514.40 310.45 515.23 311.34Q516.05 312.23 517.13 312.65Q518.21 313.08 519.36 313.08L519.36 313.08Q520.92 313.08 522.24 312.63Q523.55 312.19 524.31 311.59L524.31 311.59ZM542.06 314.43L542.06 314.43Q543.46 314.43 544.54 314.37Q545.62 314.30 546.34 314.14L546.34 314.14L546.34 307.57Q545.92 307.36 544.97 307.21Q544.01 307.06 542.66 307.06L542.66 307.06Q541.77 307.06 540.77 307.19Q539.78 307.31 538.95 307.72Q538.12 308.12 537.57 308.82Q537.02 309.52 537.02 310.66L537.02 310.66Q537.02 312.78 538.38 313.61Q539.73 314.43 542.06 314.43ZM541.73 294.69L541.73 294.69Q544.10 294.69 545.73 295.30Q547.36 295.92 548.36 297.04Q549.35 298.16 549.77 299.71Q550.20 301.26 550.20 303.12L550.20 303.12L550.20 316.89Q549.69 316.97 548.78 317.12Q547.87 317.27 546.72 317.40Q545.58 317.52 544.25 317.63Q542.91 317.74 541.60 317.74L541.60 317.74Q539.73 317.74 538.17 317.36Q536.60 316.97 535.46 316.15Q534.31 315.32 533.68 313.97Q533.04 312.61 533.04 310.70L533.04 310.70Q533.04 308.88 533.78 307.57Q534.52 306.26 535.79 305.45Q537.07 304.65 538.76 304.26Q540.45 303.88 542.32 303.88L542.32 303.88Q542.91 303.88 543.55 303.95Q544.18 304.01 544.75 304.12Q545.33 304.22 545.75 304.31Q546.17 304.39 546.34 304.43L546.34 304.43L546.34 303.33Q546.34 302.36 546.13 301.40Q545.92 300.45 545.37 299.71Q544.82 298.97 543.86 298.52Q542.91 298.08 541.39 298.08L541.39 298.08Q539.44 298.08 537.98 298.35Q536.51 298.63 535.79 298.93L535.79 298.93L535.33 295.66Q536.09 295.33 537.87 295.01Q539.65 294.69 541.73 294.69ZM564.43 294.77L564.43 294.77Q564.94 294.77 565.60 294.84Q566.25 294.90 566.89 295.01Q567.53 295.11 568.06 295.22Q568.58 295.33 568.84 295.41L568.84 295.41L568.16 298.84Q567.70 298.67 566.61 298.44Q565.53 298.21 563.84 298.21L563.84 298.21Q562.74 298.21 561.66 298.44Q560.58 298.67 560.24 298.76L560.24 298.76L560.24 317.27L556.30 317.27L556.30 296.17Q557.70 295.66 559.77 295.22Q561.85 294.77 564.43 294.77ZM575.91 288.42L575.91 295.24L584.26 295.24L584.26 298.54L575.91 298.54L575.91 308.71Q575.91 310.36 576.17 311.45Q576.42 312.53 576.93 313.14Q577.44 313.75 578.20 314.01Q578.96 314.26 579.98 314.26L579.98 314.26Q581.76 314.26 582.84 313.86Q583.92 313.46 584.34 313.29L584.34 313.29L585.11 316.55Q584.51 316.85 583.03 317.29Q581.55 317.74 579.64 317.74L579.64 317.74Q577.40 317.74 575.94 317.16Q574.47 316.59 573.58 315.45Q572.69 314.30 572.33 312.63Q571.97 310.96 571.97 308.75L571.97 308.75L571.97 289.10L575.91 288.42Z"/>
  <g transform="matrix(1.3333333,0,0,-1.3333333,0,214.06667)" id="g10">
    <g transform="scale(0.1)" id="g12">
      <path id="path14" style="fill:#ff8c00;fill-opacity:1;fill-rule:nonzero;stroke:none" d="m 456.379,1054.18 579.751,524.14 -620.857,-54.33 41.106,-469.81 v 0" />
      <path id="path16" style="fill:#ff8c00;fill-opacity:1;fill-rule:nonzero;stroke:none" d="M 406.363,842.223 1060.97,415.238 439.262,371.77 406.363,842.223 v 0" />
      <path id="path18" style="fill:#ff8c00;fill-opacity:1;fill-rule:nonzero;stroke:none" d="m 3242.58,1460.14 c 40.13,0 72.68,32.5 72.68,72.65 0,40.16 -32.55,72.66 -72.68,72.66 -40.15,0 -72.69,-32.5 -72.69,-72.66 0,-40.15 32.54,-72.65 72.69,-72.65 v 0" />
      <path id="path20" style="fill:#000000;fill-opacity:1;fill-rule:nonzero;stroke:none" d="M 0,1493.66 V 424.281 H 360.344 V 1493.66 H 0 v 0" />
      <path id="path22" style="fill:#000000;fill-opacity:1;fill-rule:nonzero;stroke:none" d="M 1133.14,1492.77 V 425.172 l -705.39,533.801 705.39,533.797 v 0" />
      <path id="path24" style="fill:#000000;fill-opacity:1;fill-rule:nonzero;stroke:none" d="m 4477.04,283.449 c -9.75,-4.019 -22.78,-7.168 -39.11,-9.461 -16.34,-2.289 -30.52,-3.429 -42.56,-3.429 -37.25,0 -66.04,10.742 -86.39,32.23 -20.34,21.492 -30.5,58.59 -30.5,111.313 0,55.578 10.88,95.418 32.65,119.476 21.78,24.082 49.56,36.113 83.38,36.113 11.47,0 23.64,-0.582 36.53,-1.722 12.91,-1.149 28.23,-4.008 46,-8.59 z m 99.71,-45.558 v 569.902 c 0,6.301 -1.29,10.312 -3.84,12.031 -2.56,1.719 -6.68,2.582 -12.36,2.582 h -66.47 c -6.26,0 -10.66,-0.863 -13.22,-2.582 -2.55,-1.719 -3.82,-5.73 -3.82,-12.031 V 645.332 c -18.35,4.582 -35.4,7.441 -51.15,8.594 -15.76,1.144 -29.38,1.719 -40.83,1.719 -37.26,0 -69.06,-6.59 -95.41,-19.766 -26.37,-13.191 -48.14,-30.809 -65.33,-52.867 -17.19,-22.063 -29.81,-47.711 -37.83,-76.934 -8.02,-29.219 -12.03,-59.887 -12.03,-91.976 0,-34.383 3.58,-65.622 10.73,-93.692 7.13,-28.09 18.86,-52.148 35.17,-72.211 16.29,-20.058 37.59,-35.527 63.89,-46.41 26.3,-10.879 58.61,-16.328 96.93,-16.328 9.72,0 25.44,0.719 47.17,2.148 21.73,1.43 43.59,4.012 65.62,7.731 22.02,3.719 41.31,9.031 57.91,15.898 16.57,6.883 24.87,15.762 24.87,26.653 v 0" />
      <path id="path26" style="fill:#000000;fill-opacity:1;fill-rule:nonzero;stroke:none" d="m 2376.23,280.121 c -15,5.481 -26.67,13.688 -35.02,24.641 -8.36,10.937 -13.97,24.769 -16.85,41.5 -2.9,16.707 -4.33,36.308 -4.33,58.777 V 635 c 0,6.34 -1.29,10.371 -3.89,12.102 -2.6,1.726 -6.77,2.597 -12.54,2.597 h -67.42 c -6.35,0 -10.68,-0.871 -12.97,-2.597 -2.31,-1.731 -3.46,-5.762 -3.46,-12.102 V 406.77 c 0,-39.77 3.89,-73.782 11.67,-102.008 7.78,-28.25 20.02,-51.16 36.74,-68.723 16.71,-17.59 38.61,-30.41 65.71,-38.48 27.08,-8.071 60.21,-12.098 99.41,-12.098 7.48,0 16.13,0.148 25.94,0.43 9.79,0.3 19.88,0.73 30.25,1.3 10.38,0.571 20.46,1.438 30.27,2.59 9.79,1.16 18.43,2.309 25.93,3.457 20.17,4.032 34.87,11.961 44.09,23.774 9.21,11.808 13.83,27.808 13.83,47.976 V 635 c 0,6.34 -1.3,10.371 -3.89,12.102 -2.59,1.726 -6.78,2.597 -12.53,2.597 h -67.43 c -6.35,0 -10.68,-0.871 -12.97,-2.597 -2.32,-1.731 -3.46,-5.762 -3.46,-12.102 V 277.09 c -15.57,-2.891 -29.26,-4.461 -41.06,-4.75 -11.82,-0.301 -20.9,-0.43 -27.24,-0.43 -24.2,0 -43.8,2.731 -58.78,8.211 v 0" />
      <path id="path28" style="fill:#000000;fill-opacity:1;fill-rule:nonzero;stroke:none" d="m 2993.48,288.379 c -18.46,-5.219 -35.88,-8.688 -52.31,-10.418 -16.42,-1.731 -29.26,-2.59 -38.46,-2.59 -34.58,0 -61.68,11.848 -81.27,35.539 -19.6,23.692 -29.4,60.988 -29.4,111.852 0,27.75 2.88,51.16 8.64,70.226 5.77,19.071 13.84,34.532 24.21,46.383 10.38,11.84 22.91,20.508 37.61,26.008 14.7,5.492 30.98,8.242 48.85,8.242 11.52,0 24.64,-0.883 39.33,-2.601 14.7,-1.731 28.96,-4.622 42.8,-8.668 z m 102.01,-51.91 v 370.008 c 0,4.597 -0.87,8.496 -2.6,11.668 -1.73,3.156 -5.48,6.183 -11.24,9.074 -25.93,11.523 -54.18,19.453 -84.72,23.777 -30.55,4.317 -60.51,6.484 -89.91,6.484 -38.04,0 -70.75,-6.054 -98.11,-18.152 -27.39,-12.109 -50.01,-28.683 -67.87,-49.719 -17.88,-21.039 -31.13,-46.25 -39.77,-75.629 -8.64,-29.402 -12.97,-61.39 -12.97,-95.968 0,-34.024 3.9,-64.981 11.67,-92.934 7.78,-27.969 19.74,-52.019 35.88,-72.187 16.13,-20.18 36.59,-35.879 61.38,-47.121 24.77,-11.239 54.17,-16.848 88.18,-16.848 16.13,0 33.85,1.297 53.16,3.879 19.31,2.597 37.32,6.488 54.04,11.668 v -5.18 c 0,-18.437 -3.32,-33.848 -9.94,-46.25 -6.63,-12.379 -16.15,-22.769 -28.53,-31.129 -12.4,-8.34 -27.38,-14.98 -44.96,-19.879 -17.58,-4.8904 -37.03,-9.0701 -58.35,-12.531 -7.5,-1.7305 -10.96,-6.3398 -10.37,-13.8398 l 8.64,-65.69926 c 1.15,-8.0625 6.62,-11.24219 16.43,-9.511721 38.03,5.199221 71.32,12.972681 99.85,23.351581 28.53,10.3711 52.43,24.7773 71.75,43.2187 19.31,18.4493 33.86,41.5005 43.66,69.1605 9.8,27.672 14.7,61.09 14.7,100.289 v 0" />
      <path id="path30" style="fill:#000000;fill-opacity:1;fill-rule:nonzero;stroke:none" d="m 3501.8,464.699 h -198.84 c 0.57,14.391 3.46,28.231 8.64,41.492 5.19,13.25 12.1,25.071 20.75,35.438 8.65,10.383 19.02,18.601 31.13,24.641 12.1,6.05 25.92,9.082 41.49,9.082 19.58,0 35.58,-2.891 47.98,-8.641 12.38,-5.77 22.18,-13.699 29.39,-23.781 7.2,-10.09 12.24,-21.758 15.13,-35.008 2.88,-13.262 4.33,-27.672 4.33,-43.223 z m 96.81,3.461 c 0,59.352 -15.98,106.031 -47.98,140.043 -31.98,33.996 -81.12,51.008 -147.39,51.008 -29.98,0 -57.63,-5.344 -83,-15.996 -25.36,-10.676 -47.11,-26.231 -65.26,-46.684 -18.16,-20.461 -32.42,-45.531 -42.79,-75.211 -10.38,-29.691 -15.57,-63.55 -15.57,-101.582 0,-81.258 18.44,-140.629 55.33,-178.09 36.88,-37.468 90.19,-56.187 159.93,-56.187 23.63,0 48.41,2.598 74.35,7.777 25.94,5.192 49.84,14.403 71.76,27.66 8.05,4.032 10.08,10.661 6.04,19.891 l -23.34,49.281 c -3.45,7.481 -9.8,9.211 -19.01,5.18 -13.27,-6.34 -28.83,-11.82 -46.69,-16.422 -17.87,-4.617 -36.03,-6.918 -54.46,-6.918 -16.72,0 -32.29,2.02 -46.68,6.051 -14.42,4.019 -27.1,10.809 -38.04,20.309 -10.96,9.511 -19.6,21.91 -25.94,37.179 -6.34,15.262 -9.8,34.153 -10.37,56.629 h 229.95 c 9.8,0 18.88,1.141 27.24,3.461 8.35,2.289 15.69,6.332 22.04,12.102 6.34,5.75 11.24,13.531 14.7,23.339 3.45,9.79 5.18,22.18 5.18,37.18 v 0" />
      <path id="path32" style="fill:#000000;fill-opacity:1;fill-rule:nonzero;stroke:none" d="m 3922.36,564.539 c 15.85,-5.48 28.38,-13.687 37.61,-24.641 9.21,-10.949 15.69,-24.777 19.45,-41.488 3.74,-16.719 5.62,-36.308 5.62,-58.789 V 209.66 c 0,-6.351 1.29,-10.371 3.85,-12.101 2.57,-1.731 6.72,-2.59 12.44,-2.59 h 67.7 c 6.28,0 10.57,0.859 12.86,2.59 2.29,1.73 3.43,5.75 3.43,12.101 v 228.231 c 0,39.769 -4.32,73.769 -12.94,102.007 -8.63,28.243 -22,51.153 -40.11,68.735 -18.12,17.578 -41.13,30.39 -69.01,38.469 -27.89,8.066 -60.81,12.109 -98.77,12.109 -7.48,0 -16.39,-0.305 -26.74,-0.871 -10.35,-0.574 -20.99,-1.16 -31.92,-1.727 -10.93,-0.578 -21.28,-1.445 -31.05,-2.59 -9.78,-1.16 -17.53,-2.031 -23.28,-2.597 -23.58,-4.043 -39.12,-11.817 -46.59,-23.34 -7.48,-11.531 -11.21,-27.664 -11.21,-48.414 V 209.66 c 0,-6.351 1.3,-10.371 3.89,-12.101 2.6,-1.731 6.77,-2.59 12.54,-2.59 h 67.43 c 6.34,0 10.65,0.859 12.97,2.59 2.29,1.73 3.45,5.75 3.45,12.101 v 357.91 c 15.56,2.879 29.25,4.461 41.07,4.75 11.81,0.289 20.88,0.43 27.23,0.43 24.2,0 44.22,-2.738 60.08,-8.211 v 0" />
      <path id="path34" style="fill:#000000;fill-opacity:1;fill-rule:nonzero;stroke:none" d="m 1840.24,1479.05 c 3.46,4.03 4.33,7.49 2.6,10.38 -1.73,2.87 -5.19,4.32 -10.37,4.32 h -88.19 c -8.64,0 -15.56,-1.02 -20.74,-3.03 -5.19,-2.02 -9.52,-5.05 -12.97,-9.08 l -131.4,-160.79 -86.46,-109.8 -3.46,1.74 v 262.8 c 0,8.07 -1.29,13.11 -3.88,15.13 -2.6,2.01 -7.93,3.03 -16,3.03 h -64.84 c -6.35,0 -11.23,-1.16 -14.7,-3.46 -3.45,-2.31 -5.18,-7.21 -5.18,-14.7 V 906.75 c 0,-7.5 1.73,-12.402 5.18,-14.699 3.47,-2.309 8.35,-3.457 14.7,-3.457 h 64.84 c 8.07,0 13.4,0.996 16,3.023 2.59,2.016 3.88,7.055 3.88,15.133 v 146.96 l 109.8,134.86 154.74,-281.82 c 5.19,-9.23 10.08,-14.562 14.7,-15.996 4.61,-1.445 12.39,-2.16 23.34,-2.16 h 76.94 c 13.25,0 16.13,6.617 8.65,19.883 l -205.75,367.413 168.57,203.16 v 0" />
      <path id="path36" style="fill:#000000;fill-opacity:1;fill-rule:nonzero;stroke:none" d="m 2218.03,1188.47 c 0,-20.29 -1.88,-39.56 -5.62,-57.83 -3.76,-18.26 -9.81,-34.33 -18.16,-48.25 -8.36,-13.91 -19.45,-25.07 -33.28,-33.47 -13.84,-8.4 -30.84,-12.6 -51.01,-12.6 -39.76,0 -67.43,13.77 -82.99,41.29 -15.56,27.53 -23.34,65.35 -23.34,113.47 0,21.44 2.16,41.43 6.48,59.97 4.32,18.55 11.09,34.49 20.32,47.82 9.21,13.34 20.75,23.92 34.58,31.75 13.83,7.82 29.96,11.74 48.41,11.74 20.75,0 37.89,-4.07 51.44,-12.17 13.53,-8.12 24.21,-19.28 31.99,-33.48 7.77,-14.21 13.25,-30.58 16.42,-49.12 3.16,-18.55 4.76,-38.26 4.76,-59.12 z m 102.87,2.6 c 0,73.18 -17.72,130.67 -53.17,172.47 -35.44,41.77 -87.46,62.67 -156.04,62.67 -31.12,0 -59.51,-5.33 -85.15,-15.99 -25.65,-10.67 -47.7,-26.08 -66.14,-46.25 -18.45,-20.18 -32.85,-44.95 -43.22,-74.35 -10.38,-29.39 -15.56,-63.11 -15.56,-101.15 0,-77.24 17.14,-135.87 51.44,-175.92 34.28,-40.07 86.3,-60.089 156.04,-60.089 70.3,0 123.19,20.602 158.63,61.809 35.45,41.2 53.17,100.14 53.17,176.8 v 0" />
      <path id="path38" style="fill:#000000;fill-opacity:1;fill-rule:nonzero;stroke:none" d="m 2594.95,1031.13 c -0.58,4.61 -1.88,7.64 -3.9,9.08 -2.02,1.43 -5.33,1.86 -9.94,1.3 -4.03,-0.58 -9.07,-1.16 -15.12,-1.73 -6.06,-0.58 -11.39,-0.87 -16,-0.87 -11.53,0 -19.32,2.73 -23.34,8.22 -4.04,5.47 -6.05,15.69 -6.05,30.69 v 501.41 c 0,6.34 -1.29,10.38 -3.89,12.1 -2.6,1.73 -7.06,2.6 -13.4,2.6 h -68.3 c -5.76,0 -9.94,-0.87 -12.53,-2.6 -2.6,-1.72 -3.9,-5.76 -3.9,-12.1 v -525.62 c 0,-37.47 7.49,-63.688 22.48,-78.669 14.98,-14.98 38.61,-22.48 70.89,-22.48 11.53,0 24.64,0.734 39.34,2.164 14.7,1.445 27.8,4.473 39.34,9.078 5.75,2.875 9.2,5.32 10.37,7.348 1.15,2.012 1.15,5.902 0,11.672 l -6.05,48.407 v 0" />
      <path id="path40" style="fill:#000000;fill-opacity:1;fill-rule:nonzero;stroke:none" d="m 2984.83,1190.2 c 0,-28.24 -2.9,-51.87 -8.68,-70.89 -5.8,-19.02 -13.9,-34.44 -24.31,-46.25 -10.42,-11.82 -22.71,-20.31 -36.9,-25.5 -14.18,-5.18 -29.68,-7.78 -46.45,-7.78 -11.58,0 -24.16,0.86 -37.77,2.6 -13.6,1.72 -29.38,4.88 -47.31,9.5 v 274.91 c 10.41,3.46 23.58,6.34 39.49,8.65 15.91,2.29 29.67,3.46 41.25,3.46 18.51,0 35.3,-2.6 50.35,-7.78 15.04,-5.19 27.79,-13.7 38.21,-25.5 10.42,-11.82 18.37,-27.1 23.87,-45.82 5.5,-18.74 8.25,-41.93 8.25,-69.6 z m 104.61,-0.86 c 0,32.85 -3.89,63.67 -11.68,92.5 -7.77,28.81 -20.17,53.88 -37.16,75.21 -17.02,21.32 -38.77,38.04 -65.28,50.14 -26.51,12.11 -58.5,18.16 -95.95,18.16 -28.83,0 -59.22,-2.31 -91.22,-6.92 -31.98,-4.62 -62.39,-13.26 -91.2,-25.93 -5.77,-2.89 -9.51,-5.77 -11.24,-8.65 -1.73,-2.89 -2.58,-6.92 -2.58,-12.1 V 801.172 c 0,-6.328 1.27,-10.371 3.84,-12.098 2.57,-1.73 6.71,-2.597 12.44,-2.597 h 67.7 c 6.29,0 10.57,0.867 12.86,2.597 2.29,1.727 3.44,5.77 3.44,12.098 V 965.43 c 20.21,-4.606 38.56,-7.778 55.04,-9.504 16.48,-1.735 32.51,-2.602 48.12,-2.602 34.1,0 63.86,6.203 89.29,18.59 25.43,12.391 46.52,29.396 63.29,51.006 16.76,21.61 29.34,46.69 37.72,75.21 8.36,28.53 12.57,58.92 12.57,91.21 v 0" />
      <path id="path42" style="fill:#000000;fill-opacity:1;fill-rule:nonzero;stroke:none" d="m 3646.6,1331.55 c 15.84,-5.48 28.38,-13.7 37.6,-24.64 9.22,-10.95 15.7,-24.78 19.45,-41.49 3.74,-16.73 5.63,-36.31 5.63,-58.79 V 976.672 c 0,-6.348 1.28,-10.375 3.85,-12.106 2.56,-1.726 6.7,-2.593 12.44,-2.593 h 67.7 c 6.28,0 10.56,0.867 12.85,2.593 2.29,1.731 3.44,5.758 3.44,12.106 V 1204.9 c 0,39.77 -4.33,73.77 -12.94,102.01 -8.63,28.23 -22.01,51.14 -40.13,68.73 -18.1,17.57 -41.11,30.39 -68.99,38.47 -27.89,8.07 -60.81,12.1 -98.77,12.1 -7.48,0 -16.4,-0.3 -26.75,-0.86 -10.34,-0.58 -20.98,-1.17 -31.91,-1.73 -10.93,-0.58 -21.28,-1.44 -31.06,-2.59 -9.78,-1.17 -17.54,-2.03 -23.28,-2.6 -23.58,-4.04 -39.11,-11.82 -46.58,-23.34 -7.49,-11.54 -11.21,-27.66 -11.21,-48.41 V 976.672 c 0,-6.348 1.29,-10.375 3.89,-12.106 2.59,-1.726 6.76,-2.593 12.54,-2.593 h 67.43 c 6.33,0 10.65,0.867 12.96,2.593 2.3,1.731 3.46,5.758 3.46,12.106 v 357.898 c 15.56,2.88 29.24,4.47 41.07,4.76 11.79,0.28 20.88,0.43 27.22,0.43 24.21,0 44.23,-2.74 60.09,-8.21 v 0" />
      <path id="path44" style="fill:#000000;fill-opacity:1;fill-rule:nonzero;stroke:none" d="m 4203.77,1055.38 c -18.45,-5.21 -35.88,-8.68 -52.31,-10.41 -16.42,-1.73 -29.25,-2.59 -38.46,-2.59 -34.58,0 -61.68,11.84 -81.26,35.53 -19.6,23.69 -29.4,60.99 -29.4,111.86 0,27.75 2.87,51.16 8.65,70.23 5.75,19.07 13.82,34.52 24.21,46.37 10.37,11.85 22.91,20.52 37.6,26.01 14.69,5.49 30.97,8.25 48.84,8.25 11.52,0 24.64,-0.88 39.34,-2.61 14.69,-1.73 28.96,-4.62 42.79,-8.66 z m 102.01,-51.91 v 370.01 c 0,4.6 -0.86,8.49 -2.59,11.67 -1.73,3.15 -5.48,6.19 -11.24,9.07 -25.93,11.53 -54.18,19.46 -84.72,23.78 -30.56,4.32 -60.52,6.48 -89.91,6.48 -38.03,0 -70.76,-6.05 -98.12,-18.15 -27.38,-12.11 -50.01,-28.68 -67.86,-49.71 -17.87,-21.05 -31.13,-46.25 -39.77,-75.64 -8.65,-29.4 -12.97,-61.38 -12.97,-95.96 0,-34.02 3.89,-64.99 11.67,-92.94 7.79,-27.96 19.74,-52.02 35.88,-72.19 16.13,-20.175 36.59,-35.87 61.38,-47.113 24.77,-11.238 54.17,-16.851 88.17,-16.851 16.14,0 33.86,1.293 53.18,3.883 19.29,2.593 37.3,6.488 54.03,11.671 v -5.183 c 0,-18.442 -3.33,-33.856 -9.94,-46.25 -6.64,-12.391 -16.14,-22.766 -28.54,-31.125 -12.4,-8.352 -27.38,-14.981 -44.95,-19.883 -17.59,-4.894 -37.04,-9.078 -58.35,-12.535 -7.5,-1.727 -10.95,-6.336 -10.38,-13.832 l 8.64,-65.699 c 1.16,-8.067 6.63,-11.239 16.43,-9.512 38.04,5.187 71.33,12.969 99.85,23.34 28.53,10.371 52.45,24.785 71.76,43.222 19.3,18.454 33.85,41.5 43.65,69.161 9.8,27.668 14.7,61.086 14.7,100.286 v 0" />
      <path id="path46" style="fill:#000000;fill-opacity:1;fill-rule:nonzero;stroke:none" d="m 2041.14,698.105 c 40.14,0 72.69,32.5 72.69,72.657 0,40.156 -32.55,72.656 -72.69,72.656 -40.14,0 -72.68,-32.5 -72.68,-72.656 0,-40.157 32.54,-72.657 72.68,-72.657 v 0" />
      <path id="path48" style="fill:#000000;fill-opacity:1;fill-rule:nonzero;stroke:none" d="m 2090.88,637.336 c 0,6.297 -1.14,10.312 -3.41,12.031 -2.28,1.719 -6.54,2.578 -12.79,2.578 l -67.31,-24.23 c 0,0 -9.82,-3.125 -12.37,-4.844 -2.55,-1.719 -3.83,-5.742 -3.83,-12.039 V 255.68 c 0,-17.192 -1.01,-33.379 -3.01,-48.571 -2.01,-15.179 -6.16,-29.5 -12.46,-42.98 -6.32,-13.457 -15.19,-25.777 -26.65,-36.949 -11.47,-11.18 -26.65,-21.071 -45.56,-29.6605 -4.58,-2.8593 -7.87,-5.289 -9.88,-7.3007 -2,-2.0079 -1.86,-5.8672 0.43,-11.6172 l 21.49,-60.1602 c 2.28,-7.4414 8.87,-9.74218 19.77,-6.8828 21.77,7.4531 42.21,17.1914 61.31,29.2227 19.1,12.039 35.6,27.9375 49.52,47.7187 13.91,19.762 24.86,44.129 32.81,73.051 7.95,28.949 11.94,64.051 11.94,105.308 v 370.477 0" />
      <path id="path50" style="fill:#000000;fill-opacity:1;fill-rule:nonzero;stroke:none" d="m 3292.43,1399.51 c 0,6.3 -1.29,10.31 -3.87,12.03 -2.57,1.72 -7.02,2.58 -13.32,2.58 l -66.19,-24.23 c 0,0 -9.88,-4.11 -12.46,-5.83 -2.58,-1.72 -3.87,-5.74 -3.87,-12.03 V 977.457 c 0,-6.312 1.29,-10.316 3.87,-12.035 2.58,-1.719 6.73,-2.578 12.46,-2.578 h 66.19 c 6.3,0 10.75,0.859 13.32,2.578 2.58,1.719 3.87,5.723 3.87,12.035 v 422.053 0" />
    </g>
  </g>
</svg>